<svg width="303" height="226" viewBox="0 0 303 226" fill="none" xmlns="http://www.w3.org/2000/svg">
<path d="M85.3271 68.0469C85.3271 60.6413 83.374 55.026 79.4678 51.2012C75.6429 47.2949 69.987 45.3418 62.5 45.3418C57.6986 45.3418 53.182 45.7487 48.9502 46.5625C44.7998 47.3763 41.1377 48.3936 37.9639 49.6143L30.6396 75.6152L11.2305 74.2725V39.9707C20.0195 35.9017 29.1341 32.7686 38.5742 30.5713C48.0957 28.2926 57.3324 27.1533 66.2842 27.1533C83.7809 27.1533 97.4121 30.7747 107.178 38.0176C117.025 45.179 121.948 55.3109 121.948 68.4131C121.948 75.9001 119.873 83.5905 115.723 91.4844C111.572 99.2969 106.038 107.313 99.1211 115.532C92.2038 123.752 84.3099 132.174 75.4395 140.801C66.569 149.346 57.4137 158.053 47.9736 166.924L48.4619 168.145H94.4824L104.492 144.585L123.291 147.393L120.483 195H6.83594V172.417C18.1478 161.268 28.5645 150.933 38.0859 141.411C47.6888 131.89 55.9896 122.938 62.9883 114.556C69.987 106.092 75.4395 98.0762 79.3457 90.5078C83.3333 82.8581 85.3271 75.3711 85.3271 68.0469Z" fill="#47B6A6"/>
<path d="M151.08 52.7411H164.08V58.6611H151.08V52.7411ZM151.64 63.7811H166.28V69.9011H143.8V41.9011H165.76V48.0211H151.64V63.7811ZM153.28 39.6211L145.76 33.5411H153.36L158.72 39.6211H153.28ZM170.675 69.9011V41.9011H177.195L188.795 60.9411H185.355L196.635 41.9011H203.155L203.235 69.9011H195.955L195.875 52.9811H197.115L188.675 67.1411H185.155L176.475 52.9811H177.995V69.9011H170.675ZM216.119 52.7411H229.119V58.6611H216.119V52.7411ZM216.679 63.7811H231.319V69.9011H208.839V41.9011H230.799V48.0211H216.679V63.7811Z" fill="#47B6A6"/>
<path d="M151.08 95.7411H164.08V101.661H151.08V95.7411ZM151.64 106.781H166.28V112.901H143.8V84.9011H165.76V91.0211H151.64V106.781ZM170.675 112.901V84.9011H177.195L192.635 103.541H189.555V84.9011H197.315V112.901H190.795L175.355 94.2611H178.435V112.901H170.675ZM202.902 112.901V84.9011H216.142C219.235 84.9011 221.955 85.4745 224.302 86.6211C226.648 87.7678 228.475 89.3811 229.782 91.4611C231.115 93.5411 231.782 96.0211 231.782 98.9011C231.782 101.754 231.115 104.234 229.782 106.341C228.475 108.421 226.648 110.034 224.302 111.181C221.955 112.328 219.235 112.901 216.142 112.901H202.902ZM210.822 106.581H215.822C217.422 106.581 218.808 106.288 219.982 105.701C221.182 105.088 222.115 104.208 222.782 103.061C223.448 101.888 223.782 100.501 223.782 98.9011C223.782 97.2745 223.448 95.8878 222.782 94.7411C222.115 93.5945 221.182 92.7278 219.982 92.1411C218.808 91.5278 217.422 91.2211 215.822 91.2211H210.822V106.581ZM250.068 113.461C247.828 113.461 245.762 113.101 243.868 112.381C241.975 111.661 240.322 110.648 238.908 109.341C237.522 108.008 236.442 106.461 235.668 104.701C234.895 102.941 234.508 101.008 234.508 98.9011C234.508 96.7945 234.895 94.8611 235.668 93.1011C236.442 91.3411 237.522 89.8078 238.908 88.5011C240.322 87.1678 241.975 86.1411 243.868 85.4211C245.762 84.7011 247.828 84.3411 250.068 84.3411C252.335 84.3411 254.402 84.7011 256.268 85.4211C258.162 86.1411 259.802 87.1678 261.188 88.5011C262.575 89.8078 263.655 91.3411 264.428 93.1011C265.228 94.8611 265.628 96.7945 265.628 98.9011C265.628 101.008 265.228 102.954 264.428 104.741C263.655 106.501 262.575 108.034 261.188 109.341C259.802 110.648 258.162 111.661 256.268 112.381C254.402 113.101 252.335 113.461 250.068 113.461ZM250.068 106.901C251.135 106.901 252.122 106.714 253.028 106.341C253.962 105.968 254.762 105.434 255.428 104.741C256.122 104.021 256.655 103.168 257.028 102.181C257.428 101.194 257.628 100.101 257.628 98.9011C257.628 97.6745 257.428 96.5811 257.028 95.6211C256.655 94.6345 256.122 93.7945 255.428 93.1011C254.762 92.3811 253.962 91.8345 253.028 91.4611C252.122 91.0878 251.135 90.9011 250.068 90.9011C249.002 90.9011 248.002 91.0878 247.068 91.4611C246.162 91.8345 245.362 92.3811 244.668 93.1011C244.002 93.7945 243.468 94.6345 243.068 95.6211C242.695 96.5811 242.508 97.6745 242.508 98.9011C242.508 100.101 242.695 101.194 243.068 102.181C243.468 103.168 244.002 104.021 244.668 104.741C245.362 105.434 246.162 105.968 247.068 106.341C248.002 106.714 249.002 106.901 250.068 106.901ZM151.16 140.181H164.08V146.301H151.16V140.181ZM151.72 155.901H143.8V127.901H165.76V134.021H151.72V155.901ZM183.35 156.461C181.11 156.461 179.043 156.101 177.15 155.381C175.256 154.661 173.603 153.648 172.19 152.341C170.803 151.008 169.723 149.461 168.95 147.701C168.176 145.941 167.79 144.008 167.79 141.901C167.79 139.794 168.176 137.861 168.95 136.101C169.723 134.341 170.803 132.808 172.19 131.501C173.603 130.168 175.256 129.141 177.15 128.421C179.043 127.701 181.11 127.341 183.35 127.341C185.616 127.341 187.683 127.701 189.55 128.421C191.443 129.141 193.083 130.168 194.47 131.501C195.856 132.808 196.936 134.341 197.71 136.101C198.51 137.861 198.91 139.794 198.91 141.901C198.91 144.008 198.51 145.954 197.71 147.741C196.936 149.501 195.856 151.034 194.47 152.341C193.083 153.648 191.443 154.661 189.55 155.381C187.683 156.101 185.616 156.461 183.35 156.461ZM183.35 149.901C184.416 149.901 185.403 149.714 186.31 149.341C187.243 148.968 188.043 148.434 188.71 147.741C189.403 147.021 189.936 146.168 190.31 145.181C190.71 144.194 190.91 143.101 190.91 141.901C190.91 140.674 190.71 139.581 190.31 138.621C189.936 137.634 189.403 136.794 188.71 136.101C188.043 135.381 187.243 134.834 186.31 134.461C185.403 134.088 184.416 133.901 183.35 133.901C182.283 133.901 181.283 134.088 180.35 134.461C179.443 134.834 178.643 135.381 177.95 136.101C177.283 136.794 176.75 137.634 176.35 138.621C175.976 139.581 175.79 140.674 175.79 141.901C175.79 143.101 175.976 144.194 176.35 145.181C176.75 146.168 177.283 147.021 177.95 147.741C178.643 148.434 179.443 148.968 180.35 149.341C181.283 149.714 182.283 149.901 183.35 149.901ZM203.058 155.901V127.901H215.858C218.418 127.901 220.618 128.314 222.458 129.141C224.324 129.968 225.764 131.168 226.778 132.741C227.791 134.288 228.298 136.128 228.298 138.261C228.298 140.368 227.791 142.194 226.778 143.741C225.764 145.261 224.324 146.434 222.458 147.261C220.618 148.061 218.418 148.461 215.858 148.461H207.458L210.978 145.141V155.901H203.058ZM220.378 155.901L213.418 145.701H221.858L228.858 155.901H220.378ZM210.978 145.981L207.458 142.341H215.378C217.031 142.341 218.258 141.981 219.058 141.261C219.884 140.541 220.298 139.541 220.298 138.261C220.298 136.954 219.884 135.941 219.058 135.221C218.258 134.501 217.031 134.141 215.378 134.141H207.458L210.978 130.501V145.981ZM245.587 156.461C241.454 156.461 238.227 155.328 235.907 153.061C233.587 150.794 232.427 147.581 232.427 143.421V127.901H240.347V143.181C240.347 145.581 240.814 147.301 241.747 148.341C242.707 149.381 244.014 149.901 245.667 149.901C247.321 149.901 248.614 149.381 249.547 148.341C250.481 147.301 250.947 145.581 250.947 143.181V127.901H258.747V143.421C258.747 147.581 257.587 150.794 255.267 153.061C252.947 155.328 249.721 156.461 245.587 156.461ZM264.113 155.901V127.901H270.633L282.233 146.941H278.793L290.073 127.901H296.593L296.673 155.901H289.393L289.313 138.981H290.553L282.113 153.141H278.593L269.913 138.981H271.433V155.901H264.113ZM157.92 199.461C155.68 199.461 153.613 199.101 151.72 198.381C149.827 197.661 148.173 196.648 146.76 195.341C145.373 194.008 144.293 192.461 143.52 190.701C142.747 188.941 142.36 187.008 142.36 184.901C142.36 182.794 142.747 180.861 143.52 179.101C144.293 177.341 145.373 175.808 146.76 174.501C148.173 173.168 149.827 172.141 151.72 171.421C153.613 170.701 155.68 170.341 157.92 170.341C160.187 170.341 162.253 170.701 164.12 171.421C166.013 172.141 167.653 173.168 169.04 174.501C170.427 175.808 171.507 177.341 172.28 179.101C173.08 180.861 173.48 182.794 173.48 184.901C173.48 187.008 173.08 188.954 172.28 190.741C171.507 192.501 170.427 194.034 169.04 195.341C167.653 196.648 166.013 197.661 164.12 198.381C162.253 199.101 160.187 199.461 157.92 199.461ZM157.92 192.901C158.987 192.901 159.973 192.714 160.88 192.341C161.813 191.968 162.613 191.434 163.28 190.741C163.973 190.021 164.507 189.168 164.88 188.181C165.28 187.194 165.48 186.101 165.48 184.901C165.48 183.674 165.28 182.581 164.88 181.621C164.507 180.634 163.973 179.794 163.28 179.101C162.613 178.381 161.813 177.834 160.88 177.461C159.973 177.088 158.987 176.901 157.92 176.901C156.853 176.901 155.853 177.088 154.92 177.461C154.013 177.834 153.213 178.381 152.52 179.101C151.853 179.794 151.32 180.634 150.92 181.621C150.547 182.581 150.36 183.674 150.36 184.901C150.36 186.101 150.547 187.194 150.92 188.181C151.32 189.168 151.853 190.021 152.52 190.741C153.213 191.434 154.013 191.968 154.92 192.341C155.853 192.714 156.853 192.901 157.92 192.901ZM177.628 198.901V170.901H190.428C192.988 170.901 195.188 171.314 197.028 172.141C198.895 172.968 200.335 174.168 201.348 175.741C202.361 177.288 202.868 179.128 202.868 181.261C202.868 183.368 202.361 185.194 201.348 186.741C200.335 188.261 198.895 189.434 197.028 190.261C195.188 191.061 192.988 191.461 190.428 191.461H182.028L185.548 188.141V198.901H177.628ZM194.948 198.901L187.988 188.701H196.428L203.428 198.901H194.948ZM185.548 188.981L182.028 185.341H189.948C191.601 185.341 192.828 184.981 193.628 184.261C194.455 183.541 194.868 182.541 194.868 181.261C194.868 179.954 194.455 178.941 193.628 178.221C192.828 177.501 191.601 177.141 189.948 177.141H182.028L185.548 173.501V188.981ZM207.238 198.901V170.901H215.158V192.621H228.518V198.901H207.238Z" fill="#112D63"/>
</svg>
