<svg width="662" height="411" viewBox="0 0 662 411" fill="none" xmlns="http://www.w3.org/2000/svg">
<g filter="url(#filter0_d_170_1437)">
<path d="M492.25 38H147.75C105.038 38 83.6823 38 67.4269 46.444C53.7287 53.5597 42.5597 64.7287 35.444 78.4269C27 94.6823 27 116.038 27 158.75L27 305.593C27 342.821 57.1791 373 94.4069 373H492.25C534.962 373 556.318 373 572.573 364.556C586.271 357.44 597.44 346.271 604.556 332.573C613 316.318 613 294.962 613 252.25V158.75C613 116.038 613 94.6823 604.556 78.4269C597.44 64.7287 586.271 53.5597 572.573 46.444C556.318 38 534.962 38 492.25 38Z" fill="white"/>
</g>
<path d="M405 140.594C405 134.743 409.743 130 415.594 130H554.406C560.257 130 565 134.743 565 140.594V140.594C565 146.444 560.257 151.187 554.406 151.187H415.594C409.743 151.187 405 146.444 405 140.594V140.594Z" fill="#47B6A6"/>
<path d="M464.388 143.114L466.884 137.514H468.164L470.668 143.114H469.308L467.26 138.17H467.772L465.716 143.114H464.388ZM465.636 141.914L465.98 140.93H468.86L469.212 141.914H465.636ZM472.287 143.114V138.57H470.495V137.514H475.375V138.57H473.583V143.114H472.287ZM477.425 139.77H480.121V140.778H477.425V139.77ZM477.521 142.074H480.569V143.114H476.233V137.514H480.465V138.554H477.521V142.074ZM481.76 143.114V137.514H483.056V142.058H485.864V143.114H481.76ZM486.748 143.114V137.514H488.044V143.114H486.748ZM490.725 139.77H493.421V140.778H490.725V139.77ZM490.821 142.074H493.869V143.114H489.533V137.514H493.765V138.554H490.821V142.074ZM495.06 143.114V137.514H497.484C497.985 137.514 498.417 137.597 498.78 137.762C499.143 137.922 499.423 138.154 499.62 138.458C499.817 138.762 499.916 139.125 499.916 139.546C499.916 139.962 499.817 140.322 499.62 140.626C499.423 140.925 499.143 141.154 498.78 141.314C498.417 141.474 497.985 141.554 497.484 141.554H495.78L496.356 140.986V143.114H495.06ZM498.62 143.114L497.22 141.082H498.604L500.02 143.114H498.62ZM496.356 141.13L495.78 140.522H497.412C497.812 140.522 498.111 140.437 498.308 140.266C498.505 140.09 498.604 139.85 498.604 139.546C498.604 139.237 498.505 138.997 498.308 138.826C498.111 138.655 497.812 138.57 497.412 138.57H495.78L496.356 137.954V141.13ZM502.943 143.21C502.495 143.21 502.066 143.151 501.655 143.034C501.244 142.911 500.914 142.754 500.663 142.562L501.103 141.586C501.343 141.757 501.626 141.898 501.951 142.01C502.282 142.117 502.615 142.17 502.951 142.17C503.207 142.17 503.412 142.146 503.567 142.098C503.727 142.045 503.844 141.973 503.919 141.882C503.994 141.791 504.031 141.687 504.031 141.57C504.031 141.421 503.972 141.303 503.855 141.218C503.738 141.127 503.583 141.055 503.391 141.002C503.199 140.943 502.986 140.89 502.751 140.842C502.522 140.789 502.29 140.725 502.055 140.65C501.826 140.575 501.615 140.479 501.423 140.362C501.231 140.245 501.074 140.09 500.951 139.898C500.834 139.706 500.775 139.461 500.775 139.162C500.775 138.842 500.86 138.551 501.031 138.29C501.207 138.023 501.468 137.813 501.815 137.658C502.167 137.498 502.607 137.418 503.135 137.418C503.487 137.418 503.834 137.461 504.175 137.546C504.516 137.626 504.818 137.749 505.079 137.914L504.679 138.898C504.418 138.749 504.156 138.639 503.895 138.57C503.634 138.495 503.378 138.458 503.127 138.458C502.876 138.458 502.671 138.487 502.511 138.546C502.351 138.605 502.236 138.682 502.167 138.778C502.098 138.869 502.063 138.975 502.063 139.098C502.063 139.242 502.122 139.359 502.239 139.45C502.356 139.535 502.511 139.605 502.703 139.658C502.895 139.711 503.106 139.765 503.335 139.818C503.57 139.871 503.802 139.933 504.031 140.002C504.266 140.071 504.479 140.165 504.671 140.282C504.863 140.399 505.018 140.554 505.135 140.746C505.258 140.938 505.319 141.181 505.319 141.474C505.319 141.789 505.231 142.077 505.055 142.338C504.879 142.599 504.615 142.81 504.263 142.97C503.916 143.13 503.476 143.21 502.943 143.21Z" fill="white"/>
<path d="M405 168.356C405 162.505 409.743 157.763 415.594 157.763H554.406C560.257 157.763 565 162.505 565 168.356V168.356C565 174.207 560.257 178.95 554.406 178.95H415.594C409.743 178.95 405 174.207 405 168.356V168.356Z" fill="#47B6A6"/>
<path d="M455.802 170.973C455.37 170.973 454.967 170.903 454.594 170.765C454.226 170.621 453.906 170.418 453.634 170.157C453.362 169.895 453.148 169.589 452.994 169.237C452.844 168.885 452.77 168.498 452.77 168.077C452.77 167.655 452.844 167.269 452.994 166.917C453.148 166.565 453.362 166.258 453.634 165.997C453.911 165.735 454.234 165.535 454.602 165.397C454.97 165.253 455.372 165.181 455.81 165.181C456.295 165.181 456.732 165.266 457.122 165.437C457.516 165.602 457.847 165.847 458.114 166.173L457.282 166.941C457.09 166.722 456.876 166.559 456.642 166.453C456.407 166.341 456.151 166.285 455.874 166.285C455.612 166.285 455.372 166.327 455.154 166.413C454.935 166.498 454.746 166.621 454.586 166.781C454.426 166.941 454.3 167.13 454.21 167.349C454.124 167.567 454.082 167.81 454.082 168.077C454.082 168.343 454.124 168.586 454.21 168.805C454.3 169.023 454.426 169.213 454.586 169.373C454.746 169.533 454.935 169.655 455.154 169.741C455.372 169.826 455.612 169.869 455.874 169.869C456.151 169.869 456.407 169.815 456.642 169.709C456.876 169.597 457.09 169.429 457.282 169.205L458.114 169.973C457.847 170.298 457.516 170.546 457.122 170.717C456.732 170.887 456.292 170.973 455.802 170.973ZM461.752 170.973C461.309 170.973 460.898 170.901 460.52 170.757C460.146 170.613 459.821 170.41 459.544 170.149C459.272 169.887 459.058 169.581 458.904 169.229C458.754 168.877 458.68 168.493 458.68 168.077C458.68 167.661 458.754 167.277 458.904 166.925C459.058 166.573 459.274 166.266 459.552 166.005C459.829 165.743 460.154 165.541 460.528 165.397C460.901 165.253 461.306 165.181 461.744 165.181C462.186 165.181 462.592 165.253 462.96 165.397C463.333 165.541 463.656 165.743 463.928 166.005C464.205 166.266 464.421 166.573 464.576 166.925C464.73 167.271 464.808 167.655 464.808 168.077C464.808 168.493 464.73 168.879 464.576 169.237C464.421 169.589 464.205 169.895 463.928 170.157C463.656 170.413 463.333 170.613 462.96 170.757C462.592 170.901 462.189 170.973 461.752 170.973ZM461.744 169.869C461.994 169.869 462.224 169.826 462.432 169.741C462.645 169.655 462.832 169.533 462.992 169.373C463.152 169.213 463.274 169.023 463.36 168.805C463.45 168.586 463.496 168.343 463.496 168.077C463.496 167.81 463.45 167.567 463.36 167.349C463.274 167.13 463.152 166.941 462.992 166.781C462.837 166.621 462.653 166.498 462.44 166.413C462.226 166.327 461.994 166.285 461.744 166.285C461.493 166.285 461.261 166.327 461.048 166.413C460.84 166.498 460.656 166.621 460.496 166.781C460.336 166.941 460.21 167.13 460.12 167.349C460.034 167.567 459.992 167.81 459.992 168.077C459.992 168.338 460.034 168.581 460.12 168.805C460.21 169.023 460.333 169.213 460.488 169.373C460.648 169.533 460.834 169.655 461.048 169.741C461.261 169.826 461.493 169.869 461.744 169.869ZM465.942 170.877V165.277H467.014L470.318 169.309H469.798V165.277H471.078V170.877H470.014L466.702 166.845H467.222V170.877H465.942ZM473.763 167.797H476.451V168.837H473.763V167.797ZM473.859 170.877H472.563V165.277H476.795V166.317H473.859V170.877ZM479.024 167.533H481.72V168.541H479.024V167.533ZM479.12 169.837H482.168V170.877H477.832V165.277H482.064V166.317H479.12V169.837ZM479.224 164.821L480.304 163.669H481.648L480.2 164.821H479.224ZM483.359 170.877V165.277H485.783C486.285 165.277 486.717 165.359 487.079 165.525C487.442 165.685 487.722 165.917 487.919 166.221C488.117 166.525 488.215 166.887 488.215 167.309C488.215 167.725 488.117 168.085 487.919 168.389C487.722 168.687 487.442 168.917 487.079 169.077C486.717 169.237 486.285 169.317 485.783 169.317H484.079L484.655 168.749V170.877H483.359ZM486.919 170.877L485.519 168.845H486.903L488.319 170.877H486.919ZM484.655 168.893L484.079 168.285H485.711C486.111 168.285 486.41 168.199 486.607 168.029C486.805 167.853 486.903 167.613 486.903 167.309C486.903 166.999 486.805 166.759 486.607 166.589C486.41 166.418 486.111 166.333 485.711 166.333H484.079L484.655 165.717V168.893ZM490.594 167.533H493.29V168.541H490.594V167.533ZM490.69 169.837H493.738V170.877H489.402V165.277H493.634V166.317H490.69V169.837ZM494.929 170.877V165.277H496.001L499.305 169.309H498.785V165.277H500.065V170.877H499.001L495.689 166.845H496.209V170.877H494.929ZM504.23 170.973C503.798 170.973 503.396 170.903 503.022 170.765C502.654 170.621 502.334 170.418 502.062 170.157C501.79 169.895 501.577 169.589 501.422 169.237C501.273 168.885 501.198 168.498 501.198 168.077C501.198 167.655 501.273 167.269 501.422 166.917C501.577 166.565 501.79 166.258 502.062 165.997C502.34 165.735 502.662 165.535 503.03 165.397C503.398 165.253 503.801 165.181 504.238 165.181C504.724 165.181 505.161 165.266 505.55 165.437C505.945 165.602 506.276 165.847 506.542 166.173L505.71 166.941C505.518 166.722 505.305 166.559 505.07 166.453C504.836 166.341 504.58 166.285 504.302 166.285C504.041 166.285 503.801 166.327 503.582 166.413C503.364 166.498 503.174 166.621 503.014 166.781C502.854 166.941 502.729 167.13 502.638 167.349C502.553 167.567 502.51 167.81 502.51 168.077C502.51 168.343 502.553 168.586 502.638 168.805C502.729 169.023 502.854 169.213 503.014 169.373C503.174 169.533 503.364 169.655 503.582 169.741C503.801 169.826 504.041 169.869 504.302 169.869C504.58 169.869 504.836 169.815 505.07 169.709C505.305 169.597 505.518 169.429 505.71 169.205L506.542 169.973C506.276 170.298 505.945 170.546 505.55 170.717C505.161 170.887 504.721 170.973 504.23 170.973ZM508.769 167.533H511.465V168.541H508.769V167.533ZM508.865 169.837H511.913V170.877H507.577V165.277H511.809V166.317H508.865V169.837ZM514.945 170.973C514.497 170.973 514.067 170.914 513.657 170.797C513.246 170.674 512.915 170.517 512.665 170.325L513.105 169.349C513.345 169.519 513.627 169.661 513.953 169.773C514.283 169.879 514.617 169.933 514.953 169.933C515.209 169.933 515.414 169.909 515.569 169.861C515.729 169.807 515.846 169.735 515.921 169.645C515.995 169.554 516.033 169.45 516.033 169.333C516.033 169.183 515.974 169.066 515.857 168.981C515.739 168.89 515.585 168.818 515.393 168.765C515.201 168.706 514.987 168.653 514.753 168.605C514.523 168.551 514.291 168.487 514.057 168.413C513.827 168.338 513.617 168.242 513.425 168.125C513.233 168.007 513.075 167.853 512.953 167.661C512.835 167.469 512.777 167.223 512.777 166.925C512.777 166.605 512.862 166.314 513.033 166.053C513.209 165.786 513.47 165.575 513.817 165.421C514.169 165.261 514.609 165.181 515.137 165.181C515.489 165.181 515.835 165.223 516.177 165.309C516.518 165.389 516.819 165.511 517.081 165.677L516.681 166.661C516.419 166.511 516.158 166.402 515.897 166.333C515.635 166.258 515.379 166.221 515.129 166.221C514.878 166.221 514.673 166.25 514.513 166.309C514.353 166.367 514.238 166.445 514.169 166.541C514.099 166.631 514.065 166.738 514.065 166.861C514.065 167.005 514.123 167.122 514.241 167.213C514.358 167.298 514.513 167.367 514.705 167.421C514.897 167.474 515.107 167.527 515.337 167.581C515.571 167.634 515.803 167.695 516.033 167.765C516.267 167.834 516.481 167.927 516.673 168.045C516.865 168.162 517.019 168.317 517.137 168.509C517.259 168.701 517.321 168.943 517.321 169.237C517.321 169.551 517.233 169.839 517.057 170.101C516.881 170.362 516.617 170.573 516.265 170.733C515.918 170.893 515.478 170.973 514.945 170.973Z" fill="white"/>
<path d="M405 196.119C405 190.268 409.743 185.525 415.594 185.525H554.406C560.257 185.525 565 190.268 565 196.119V196.119C565 201.969 560.257 206.712 554.406 206.712H415.594C409.743 206.712 405 201.969 405 196.119V196.119Z" fill="#47B6A6"/>
<path d="M436.002 198.735C435.554 198.735 435.124 198.677 434.714 198.559C434.303 198.437 433.972 198.279 433.721 198.087L434.161 197.111C434.401 197.282 434.684 197.423 435.01 197.535C435.34 197.642 435.674 197.695 436.01 197.695C436.266 197.695 436.471 197.671 436.626 197.623C436.786 197.57 436.903 197.498 436.978 197.407C437.052 197.317 437.09 197.213 437.09 197.095C437.09 196.946 437.031 196.829 436.914 196.743C436.796 196.653 436.642 196.581 436.45 196.527C436.258 196.469 436.044 196.415 435.809 196.367C435.58 196.314 435.348 196.25 435.113 196.175C434.884 196.101 434.674 196.005 434.481 195.887C434.289 195.77 434.132 195.615 434.009 195.423C433.892 195.231 433.833 194.986 433.833 194.687C433.833 194.367 433.919 194.077 434.089 193.815C434.265 193.549 434.527 193.338 434.873 193.183C435.225 193.023 435.666 192.943 436.194 192.943C436.546 192.943 436.892 192.986 437.234 193.071C437.575 193.151 437.876 193.274 438.138 193.439L437.738 194.423C437.476 194.274 437.215 194.165 436.954 194.095C436.692 194.021 436.436 193.983 436.186 193.983C435.935 193.983 435.729 194.013 435.569 194.071C435.41 194.13 435.295 194.207 435.225 194.303C435.156 194.394 435.122 194.501 435.122 194.623C435.122 194.767 435.18 194.885 435.298 194.975C435.415 195.061 435.57 195.13 435.762 195.183C435.954 195.237 436.164 195.29 436.394 195.343C436.628 195.397 436.86 195.458 437.09 195.527C437.324 195.597 437.538 195.69 437.73 195.807C437.922 195.925 438.076 196.079 438.194 196.271C438.316 196.463 438.378 196.706 438.378 196.999C438.378 197.314 438.29 197.602 438.114 197.863C437.938 198.125 437.674 198.335 437.322 198.495C436.975 198.655 436.535 198.735 436.002 198.735ZM440.615 195.295H443.311V196.303H440.615V195.295ZM440.711 197.599H443.759V198.639H439.423V193.039H443.655V194.079H440.711V197.599ZM446.79 198.735C446.342 198.735 445.913 198.677 445.502 198.559C445.092 198.437 444.761 198.279 444.51 198.087L444.95 197.111C445.19 197.282 445.473 197.423 445.798 197.535C446.129 197.642 446.462 197.695 446.798 197.695C447.054 197.695 447.26 197.671 447.414 197.623C447.574 197.57 447.692 197.498 447.766 197.407C447.841 197.317 447.878 197.213 447.878 197.095C447.878 196.946 447.82 196.829 447.702 196.743C447.585 196.653 447.43 196.581 447.238 196.527C447.046 196.469 446.833 196.415 446.598 196.367C446.369 196.314 446.137 196.25 445.902 196.175C445.673 196.101 445.462 196.005 445.27 195.887C445.078 195.77 444.921 195.615 444.798 195.423C444.681 195.231 444.622 194.986 444.622 194.687C444.622 194.367 444.708 194.077 444.878 193.815C445.054 193.549 445.316 193.338 445.662 193.183C446.014 193.023 446.454 192.943 446.982 192.943C447.334 192.943 447.681 192.986 448.022 193.071C448.364 193.151 448.665 193.274 448.926 193.439L448.526 194.423C448.265 194.274 448.004 194.165 447.742 194.095C447.481 194.021 447.225 193.983 446.974 193.983C446.724 193.983 446.518 194.013 446.358 194.071C446.198 194.13 446.084 194.207 446.014 194.303C445.945 194.394 445.91 194.501 445.91 194.623C445.91 194.767 445.969 194.885 446.086 194.975C446.204 195.061 446.358 195.13 446.55 195.183C446.742 195.237 446.953 195.29 447.182 195.343C447.417 195.397 447.649 195.458 447.878 195.527C448.113 195.597 448.326 195.69 448.518 195.807C448.71 195.925 448.865 196.079 448.982 196.271C449.105 196.463 449.166 196.706 449.166 196.999C449.166 197.314 449.078 197.602 448.902 197.863C448.726 198.125 448.462 198.335 448.11 198.495C447.764 198.655 447.324 198.735 446.79 198.735ZM452.052 198.735C451.604 198.735 451.174 198.677 450.764 198.559C450.353 198.437 450.022 198.279 449.772 198.087L450.212 197.111C450.452 197.282 450.734 197.423 451.06 197.535C451.39 197.642 451.724 197.695 452.06 197.695C452.316 197.695 452.521 197.671 452.676 197.623C452.836 197.57 452.953 197.498 453.028 197.407C453.102 197.317 453.14 197.213 453.14 197.095C453.14 196.946 453.081 196.829 452.964 196.743C452.846 196.653 452.692 196.581 452.5 196.527C452.308 196.469 452.094 196.415 451.86 196.367C451.63 196.314 451.398 196.25 451.164 196.175C450.934 196.101 450.724 196.005 450.532 195.887C450.34 195.77 450.182 195.615 450.06 195.423C449.942 195.231 449.884 194.986 449.884 194.687C449.884 194.367 449.969 194.077 450.14 193.815C450.316 193.549 450.577 193.338 450.924 193.183C451.276 193.023 451.716 192.943 452.244 192.943C452.596 192.943 452.942 192.986 453.284 193.071C453.625 193.151 453.926 193.274 454.188 193.439L453.788 194.423C453.526 194.274 453.265 194.165 453.004 194.095C452.742 194.021 452.486 193.983 452.236 193.983C451.985 193.983 451.78 194.013 451.62 194.071C451.46 194.13 451.345 194.207 451.276 194.303C451.206 194.394 451.172 194.501 451.172 194.623C451.172 194.767 451.23 194.885 451.348 194.975C451.465 195.061 451.62 195.13 451.812 195.183C452.004 195.237 452.214 195.29 452.444 195.343C452.678 195.397 452.91 195.458 453.14 195.527C453.374 195.597 453.588 195.69 453.78 195.807C453.972 195.925 454.126 196.079 454.244 196.271C454.366 196.463 454.428 196.706 454.428 196.999C454.428 197.314 454.34 197.602 454.164 197.863C453.988 198.125 453.724 198.335 453.372 198.495C453.025 198.655 452.585 198.735 452.052 198.735ZM455.473 198.639V193.039H456.769V198.639H455.473ZM460.978 198.735C460.536 198.735 460.125 198.663 459.746 198.519C459.373 198.375 459.048 198.173 458.77 197.911C458.498 197.65 458.285 197.343 458.13 196.991C457.981 196.639 457.906 196.255 457.906 195.839C457.906 195.423 457.981 195.039 458.13 194.687C458.285 194.335 458.501 194.029 458.778 193.767C459.056 193.506 459.381 193.303 459.754 193.159C460.128 193.015 460.533 192.943 460.97 192.943C461.413 192.943 461.818 193.015 462.186 193.159C462.56 193.303 462.882 193.506 463.154 193.767C463.432 194.029 463.648 194.335 463.802 194.687C463.957 195.034 464.034 195.418 464.034 195.839C464.034 196.255 463.957 196.642 463.802 196.999C463.648 197.351 463.432 197.658 463.154 197.919C462.882 198.175 462.56 198.375 462.186 198.519C461.818 198.663 461.416 198.735 460.978 198.735ZM460.97 197.631C461.221 197.631 461.45 197.589 461.658 197.503C461.872 197.418 462.058 197.295 462.218 197.135C462.378 196.975 462.501 196.786 462.586 196.567C462.677 196.349 462.722 196.106 462.722 195.839C462.722 195.573 462.677 195.33 462.586 195.111C462.501 194.893 462.378 194.703 462.218 194.543C462.064 194.383 461.88 194.261 461.666 194.175C461.453 194.09 461.221 194.047 460.97 194.047C460.72 194.047 460.488 194.09 460.274 194.175C460.066 194.261 459.882 194.383 459.722 194.543C459.562 194.703 459.437 194.893 459.346 195.111C459.261 195.33 459.218 195.573 459.218 195.839C459.218 196.101 459.261 196.343 459.346 196.567C459.437 196.786 459.56 196.975 459.714 197.135C459.874 197.295 460.061 197.418 460.274 197.503C460.488 197.589 460.72 197.631 460.97 197.631ZM465.168 198.639V193.039H466.24L469.544 197.071H469.024V193.039H470.304V198.639H469.24L465.928 194.607H466.448V198.639H465.168ZM473.629 198.735C473.181 198.735 472.752 198.677 472.341 198.559C471.931 198.437 471.6 198.279 471.349 198.087L471.789 197.111C472.029 197.282 472.312 197.423 472.637 197.535C472.968 197.642 473.301 197.695 473.637 197.695C473.893 197.695 474.099 197.671 474.253 197.623C474.413 197.57 474.531 197.498 474.605 197.407C474.68 197.317 474.717 197.213 474.717 197.095C474.717 196.946 474.659 196.829 474.541 196.743C474.424 196.653 474.269 196.581 474.077 196.527C473.885 196.469 473.672 196.415 473.437 196.367C473.208 196.314 472.976 196.25 472.741 196.175C472.512 196.101 472.301 196.005 472.109 195.887C471.917 195.77 471.76 195.615 471.637 195.423C471.52 195.231 471.461 194.986 471.461 194.687C471.461 194.367 471.547 194.077 471.717 193.815C471.893 193.549 472.155 193.338 472.501 193.183C472.853 193.023 473.293 192.943 473.821 192.943C474.173 192.943 474.52 192.986 474.861 193.071C475.203 193.151 475.504 193.274 475.765 193.439L475.365 194.423C475.104 194.274 474.843 194.165 474.581 194.095C474.32 194.021 474.064 193.983 473.813 193.983C473.563 193.983 473.357 194.013 473.197 194.071C473.037 194.13 472.923 194.207 472.853 194.303C472.784 194.394 472.749 194.501 472.749 194.623C472.749 194.767 472.808 194.885 472.925 194.975C473.043 195.061 473.197 195.13 473.389 195.183C473.581 195.237 473.792 195.29 474.021 195.343C474.256 195.397 474.488 195.458 474.717 195.527C474.952 195.597 475.165 195.69 475.357 195.807C475.549 195.925 475.704 196.079 475.821 196.271C475.944 196.463 476.005 196.706 476.005 196.999C476.005 197.314 475.917 197.602 475.741 197.863C475.565 198.125 475.301 198.335 474.949 198.495C474.603 198.655 474.163 198.735 473.629 198.735ZM480.636 198.639V194.095H478.844V193.039H483.724V194.095H481.932V198.639H480.636ZM488.422 193.039H489.718V198.639H488.422V193.039ZM485.878 198.639H484.582V193.039H485.878V198.639ZM488.518 196.343H485.782V195.247H488.518V196.343ZM492.395 195.295H495.091V196.303H492.395V195.295ZM492.491 197.599H495.539V198.639H491.203V193.039H495.435V194.079H492.491V197.599ZM492.595 192.583L493.675 191.431H495.019L493.571 192.583H492.595ZM496.73 198.639V193.039H497.802L500.186 196.991H499.618L501.962 193.039H503.026L503.042 198.639H501.826L501.818 194.903H502.042L500.17 198.047H499.586L497.674 194.903H497.946V198.639H496.73ZM503.795 198.639L506.291 193.039H507.571L510.075 198.639H508.715L506.667 193.695H507.179L505.123 198.639H503.795ZM505.043 197.439L505.387 196.455H508.267L508.619 197.439H505.043ZM511.694 198.639V194.095H509.902V193.039H514.782V194.095H512.99V198.639H511.694ZM515.64 198.639V193.039H516.936V198.639H515.64ZM521.137 198.735C520.699 198.735 520.291 198.663 519.913 198.519C519.539 198.375 519.214 198.173 518.937 197.911C518.665 197.65 518.451 197.343 518.297 196.991C518.147 196.639 518.073 196.255 518.073 195.839C518.073 195.423 518.147 195.039 518.297 194.687C518.451 194.335 518.667 194.029 518.945 193.767C519.222 193.506 519.547 193.303 519.921 193.159C520.294 193.015 520.699 192.943 521.137 192.943C521.579 192.943 521.985 193.015 522.353 193.159C522.726 193.303 523.049 193.506 523.321 193.767C523.598 194.023 523.814 194.327 523.969 194.679C524.123 195.031 524.201 195.418 524.201 195.839C524.201 196.255 524.123 196.642 523.969 196.999C523.814 197.351 523.598 197.658 523.321 197.919C523.049 198.175 522.726 198.375 522.353 198.519C521.985 198.663 521.579 198.735 521.137 198.735ZM522.969 199.927C522.75 199.927 522.542 199.903 522.345 199.855C522.153 199.807 521.961 199.73 521.769 199.623C521.582 199.517 521.385 199.373 521.177 199.191C520.974 199.01 520.753 198.786 520.513 198.519L521.873 198.175C522.017 198.373 522.15 198.53 522.273 198.647C522.395 198.765 522.513 198.847 522.625 198.895C522.742 198.943 522.865 198.967 522.993 198.967C523.334 198.967 523.638 198.829 523.905 198.551L524.481 199.239C524.102 199.698 523.598 199.927 522.969 199.927ZM521.137 197.631C521.387 197.631 521.617 197.589 521.825 197.503C522.038 197.418 522.225 197.295 522.385 197.135C522.545 196.975 522.667 196.786 522.753 196.567C522.843 196.343 522.889 196.101 522.889 195.839C522.889 195.573 522.843 195.33 522.753 195.111C522.667 194.893 522.545 194.703 522.385 194.543C522.225 194.383 522.038 194.261 521.825 194.175C521.617 194.09 521.387 194.047 521.137 194.047C520.886 194.047 520.654 194.09 520.441 194.175C520.227 194.261 520.041 194.383 519.881 194.543C519.726 194.703 519.603 194.893 519.513 195.111C519.427 195.33 519.385 195.573 519.385 195.839C519.385 196.101 519.427 196.343 519.513 196.567C519.603 196.786 519.726 196.975 519.881 197.135C520.041 197.295 520.227 197.418 520.441 197.503C520.654 197.589 520.886 197.631 521.137 197.631ZM527.823 198.735C527.028 198.735 526.407 198.514 525.959 198.071C525.511 197.629 525.287 196.997 525.287 196.175V193.039H526.583V196.127C526.583 196.661 526.692 197.045 526.911 197.279C527.129 197.514 527.436 197.631 527.831 197.631C528.225 197.631 528.532 197.514 528.751 197.279C528.969 197.045 529.079 196.661 529.079 196.127V193.039H530.359V196.175C530.359 196.997 530.135 197.629 529.687 198.071C529.239 198.514 528.617 198.735 527.823 198.735ZM532.991 195.295H535.687V196.303H532.991V195.295ZM533.087 197.599H536.135V198.639H531.799V193.039H536.031V194.079H533.087V197.599Z" fill="white"/>
<path d="M405 223.881C405 218.031 409.743 213.288 415.594 213.288H554.406C560.257 213.288 565 218.031 565 223.881V223.881C565 229.732 560.257 234.475 554.406 234.475H415.594C409.743 234.475 405 229.732 405 223.881V223.881Z" fill="#47B6A6"/>
<path d="M411.489 226.498C411.041 226.498 410.611 226.439 410.201 226.322C409.79 226.199 409.459 226.042 409.209 225.85L409.649 224.874C409.889 225.044 410.171 225.186 410.497 225.298C410.827 225.404 411.161 225.458 411.497 225.458C411.753 225.458 411.958 225.434 412.113 225.386C412.273 225.332 412.39 225.26 412.465 225.17C412.539 225.079 412.577 224.975 412.577 224.858C412.577 224.708 412.518 224.591 412.401 224.506C412.283 224.415 412.129 224.343 411.937 224.29C411.745 224.231 411.531 224.178 411.297 224.13C411.067 224.076 410.835 224.012 410.601 223.938C410.371 223.863 410.161 223.767 409.969 223.65C409.777 223.532 409.619 223.378 409.497 223.186C409.379 222.994 409.321 222.748 409.321 222.45C409.321 222.13 409.406 221.839 409.577 221.578C409.753 221.311 410.014 221.1 410.361 220.946C410.713 220.786 411.153 220.706 411.681 220.706C412.033 220.706 412.379 220.748 412.721 220.834C413.062 220.914 413.363 221.036 413.625 221.202L413.225 222.186C412.963 222.036 412.702 221.927 412.441 221.858C412.179 221.783 411.923 221.746 411.673 221.746C411.422 221.746 411.217 221.775 411.057 221.834C410.897 221.892 410.782 221.97 410.713 222.066C410.643 222.156 410.609 222.263 410.609 222.386C410.609 222.53 410.667 222.647 410.785 222.738C410.902 222.823 411.057 222.892 411.249 222.946C411.441 222.999 411.651 223.052 411.881 223.106C412.115 223.159 412.347 223.22 412.577 223.29C412.811 223.359 413.025 223.452 413.217 223.57C413.409 223.687 413.563 223.842 413.681 224.034C413.803 224.226 413.865 224.468 413.865 224.762C413.865 225.076 413.777 225.364 413.601 225.626C413.425 225.887 413.161 226.098 412.809 226.258C412.462 226.418 412.022 226.498 411.489 226.498ZM416.102 223.058H418.798V224.066H416.102V223.058ZM416.198 225.362H419.246V226.402H414.91V220.802H419.142V221.842H416.198V225.362ZM422.277 226.498C421.829 226.498 421.4 226.439 420.989 226.322C420.579 226.199 420.248 226.042 419.997 225.85L420.437 224.874C420.677 225.044 420.96 225.186 421.285 225.298C421.616 225.404 421.949 225.458 422.285 225.458C422.541 225.458 422.747 225.434 422.901 225.386C423.061 225.332 423.179 225.26 423.253 225.17C423.328 225.079 423.365 224.975 423.365 224.858C423.365 224.708 423.307 224.591 423.189 224.506C423.072 224.415 422.917 224.343 422.725 224.29C422.533 224.231 422.32 224.178 422.085 224.13C421.856 224.076 421.624 224.012 421.389 223.938C421.16 223.863 420.949 223.767 420.757 223.65C420.565 223.532 420.408 223.378 420.285 223.186C420.168 222.994 420.109 222.748 420.109 222.45C420.109 222.13 420.195 221.839 420.365 221.578C420.541 221.311 420.803 221.1 421.149 220.946C421.501 220.786 421.941 220.706 422.469 220.706C422.821 220.706 423.168 220.748 423.509 220.834C423.851 220.914 424.152 221.036 424.413 221.202L424.013 222.186C423.752 222.036 423.491 221.927 423.229 221.858C422.968 221.783 422.712 221.746 422.461 221.746C422.211 221.746 422.005 221.775 421.845 221.834C421.685 221.892 421.571 221.97 421.501 222.066C421.432 222.156 421.397 222.263 421.397 222.386C421.397 222.53 421.456 222.647 421.573 222.738C421.691 222.823 421.845 222.892 422.037 222.946C422.229 222.999 422.44 223.052 422.669 223.106C422.904 223.159 423.136 223.22 423.365 223.29C423.6 223.359 423.813 223.452 424.005 223.57C424.197 223.687 424.352 223.842 424.469 224.034C424.592 224.226 424.653 224.468 424.653 224.762C424.653 225.076 424.565 225.364 424.389 225.626C424.213 225.887 423.949 226.098 423.597 226.258C423.251 226.418 422.811 226.498 422.277 226.498ZM427.539 226.498C427.091 226.498 426.662 226.439 426.251 226.322C425.84 226.199 425.51 226.042 425.259 225.85L425.699 224.874C425.939 225.044 426.222 225.186 426.547 225.298C426.878 225.404 427.211 225.458 427.547 225.458C427.803 225.458 428.008 225.434 428.163 225.386C428.323 225.332 428.44 225.26 428.515 225.17C428.59 225.079 428.627 224.975 428.627 224.858C428.627 224.708 428.568 224.591 428.451 224.506C428.334 224.415 428.179 224.343 427.987 224.29C427.795 224.231 427.582 224.178 427.347 224.13C427.118 224.076 426.886 224.012 426.651 223.938C426.422 223.863 426.211 223.767 426.019 223.65C425.827 223.532 425.67 223.378 425.547 223.186C425.43 222.994 425.371 222.748 425.371 222.45C425.371 222.13 425.456 221.839 425.627 221.578C425.803 221.311 426.064 221.1 426.411 220.946C426.763 220.786 427.203 220.706 427.731 220.706C428.083 220.706 428.43 220.748 428.771 220.834C429.112 220.914 429.414 221.036 429.675 221.202L429.275 222.186C429.014 222.036 428.752 221.927 428.491 221.858C428.23 221.783 427.974 221.746 427.723 221.746C427.472 221.746 427.267 221.775 427.107 221.834C426.947 221.892 426.832 221.97 426.763 222.066C426.694 222.156 426.659 222.263 426.659 222.386C426.659 222.53 426.718 222.647 426.835 222.738C426.952 222.823 427.107 222.892 427.299 222.946C427.491 222.999 427.702 223.052 427.931 223.106C428.166 223.159 428.398 223.22 428.627 223.29C428.862 223.359 429.075 223.452 429.267 223.57C429.459 223.687 429.614 223.842 429.731 224.034C429.854 224.226 429.915 224.468 429.915 224.762C429.915 225.076 429.827 225.364 429.651 225.626C429.475 225.887 429.211 226.098 428.859 226.258C428.512 226.418 428.072 226.498 427.539 226.498ZM430.96 226.402V220.802H432.256V226.402H430.96ZM436.465 226.498C436.023 226.498 435.612 226.426 435.233 226.282C434.86 226.138 434.535 225.935 434.257 225.674C433.985 225.412 433.772 225.106 433.617 224.754C433.468 224.402 433.393 224.018 433.393 223.602C433.393 223.186 433.468 222.802 433.617 222.45C433.772 222.098 433.988 221.791 434.265 221.53C434.543 221.268 434.868 221.066 435.241 220.922C435.615 220.778 436.02 220.706 436.457 220.706C436.9 220.706 437.305 220.778 437.673 220.922C438.047 221.066 438.369 221.268 438.641 221.53C438.919 221.791 439.135 222.098 439.289 222.45C439.444 222.796 439.521 223.18 439.521 223.602C439.521 224.018 439.444 224.404 439.289 224.762C439.135 225.114 438.919 225.42 438.641 225.682C438.369 225.938 438.047 226.138 437.673 226.282C437.305 226.426 436.903 226.498 436.465 226.498ZM436.457 225.394C436.708 225.394 436.937 225.351 437.145 225.266C437.359 225.18 437.545 225.058 437.705 224.898C437.865 224.738 437.988 224.548 438.073 224.33C438.164 224.111 438.209 223.868 438.209 223.602C438.209 223.335 438.164 223.092 438.073 222.874C437.988 222.655 437.865 222.466 437.705 222.306C437.551 222.146 437.367 222.023 437.153 221.938C436.94 221.852 436.708 221.81 436.457 221.81C436.207 221.81 435.975 221.852 435.761 221.938C435.553 222.023 435.369 222.146 435.209 222.306C435.049 222.466 434.924 222.655 434.833 222.874C434.748 223.092 434.705 223.335 434.705 223.602C434.705 223.863 434.748 224.106 434.833 224.33C434.924 224.548 435.047 224.738 435.201 224.898C435.361 225.058 435.548 225.18 435.761 225.266C435.975 225.351 436.207 225.394 436.457 225.394ZM440.655 226.402V220.802H441.727L445.031 224.834H444.511V220.802H445.791V226.402H444.727L441.415 222.37H441.935V226.402H440.655ZM449.116 226.498C448.668 226.498 448.239 226.439 447.828 226.322C447.418 226.199 447.087 226.042 446.836 225.85L447.276 224.874C447.516 225.044 447.799 225.186 448.124 225.298C448.455 225.404 448.788 225.458 449.124 225.458C449.38 225.458 449.586 225.434 449.74 225.386C449.9 225.332 450.018 225.26 450.092 225.17C450.167 225.079 450.204 224.975 450.204 224.858C450.204 224.708 450.146 224.591 450.028 224.506C449.911 224.415 449.756 224.343 449.564 224.29C449.372 224.231 449.159 224.178 448.924 224.13C448.695 224.076 448.463 224.012 448.228 223.938C447.999 223.863 447.788 223.767 447.596 223.65C447.404 223.532 447.247 223.378 447.124 223.186C447.007 222.994 446.948 222.748 446.948 222.45C446.948 222.13 447.034 221.839 447.204 221.578C447.38 221.311 447.642 221.1 447.988 220.946C448.34 220.786 448.78 220.706 449.308 220.706C449.66 220.706 450.007 220.748 450.348 220.834C450.69 220.914 450.991 221.036 451.252 221.202L450.852 222.186C450.591 222.036 450.33 221.927 450.068 221.858C449.807 221.783 449.551 221.746 449.3 221.746C449.05 221.746 448.844 221.775 448.684 221.834C448.524 221.892 448.41 221.97 448.34 222.066C448.271 222.156 448.236 222.263 448.236 222.386C448.236 222.53 448.295 222.647 448.412 222.738C448.53 222.823 448.684 222.892 448.876 222.946C449.068 222.999 449.279 223.052 449.508 223.106C449.743 223.159 449.975 223.22 450.204 223.29C450.439 223.359 450.652 223.452 450.844 223.57C451.036 223.687 451.191 223.842 451.308 224.034C451.431 224.226 451.492 224.468 451.492 224.762C451.492 225.076 451.404 225.364 451.228 225.626C451.052 225.887 450.788 226.098 450.436 226.258C450.09 226.418 449.65 226.498 449.116 226.498ZM454.964 226.402V220.802H457.508C458.116 220.802 458.652 220.919 459.116 221.154C459.58 221.383 459.942 221.706 460.204 222.122C460.465 222.538 460.596 223.031 460.596 223.602C460.596 224.167 460.465 224.66 460.204 225.082C459.942 225.498 459.58 225.823 459.116 226.058C458.652 226.287 458.116 226.402 457.508 226.402H454.964ZM456.26 225.338H457.444C457.817 225.338 458.14 225.268 458.412 225.13C458.689 224.986 458.902 224.783 459.052 224.522C459.206 224.26 459.284 223.954 459.284 223.602C459.284 223.244 459.206 222.938 459.052 222.682C458.902 222.42 458.689 222.22 458.412 222.082C458.14 221.938 457.817 221.866 457.444 221.866H456.26V225.338ZM462.925 223.058H465.621V224.066H462.925V223.058ZM463.021 225.362H466.069V226.402H461.733V220.802H465.965V221.842H463.021V225.362ZM471.366 226.402L468.95 220.802H470.35L472.462 225.762H471.638L473.782 220.802H475.07L472.646 226.402H471.366ZM475.697 226.402V220.802H476.993V226.402H475.697ZM478.482 226.402V220.802H481.026C481.634 220.802 482.17 220.919 482.634 221.154C483.098 221.383 483.461 221.706 483.722 222.122C483.984 222.538 484.114 223.031 484.114 223.602C484.114 224.167 483.984 224.66 483.722 225.082C483.461 225.498 483.098 225.823 482.634 226.058C482.17 226.287 481.634 226.402 481.026 226.402H478.482ZM479.778 225.338H480.962C481.336 225.338 481.658 225.268 481.93 225.13C482.208 224.986 482.421 224.783 482.57 224.522C482.725 224.26 482.802 223.954 482.802 223.602C482.802 223.244 482.725 222.938 482.57 222.682C482.421 222.42 482.208 222.22 481.93 222.082C481.658 221.938 481.336 221.866 480.962 221.866H479.778V225.338ZM486.444 223.058H489.14V224.066H486.444V223.058ZM486.54 225.362H489.588V226.402H485.252V220.802H489.484V221.842H486.54V225.362ZM493.499 226.498C493.056 226.498 492.646 226.426 492.267 226.282C491.894 226.138 491.568 225.935 491.291 225.674C491.019 225.412 490.806 225.106 490.651 224.754C490.502 224.402 490.427 224.018 490.427 223.602C490.427 223.186 490.502 222.802 490.651 222.45C490.806 222.098 491.022 221.791 491.299 221.53C491.576 221.268 491.902 221.066 492.275 220.922C492.648 220.778 493.054 220.706 493.491 220.706C493.934 220.706 494.339 220.778 494.707 220.922C495.08 221.066 495.403 221.268 495.675 221.53C495.952 221.791 496.168 222.098 496.323 222.45C496.478 222.796 496.555 223.18 496.555 223.602C496.555 224.018 496.478 224.404 496.323 224.762C496.168 225.114 495.952 225.42 495.675 225.682C495.403 225.938 495.08 226.138 494.707 226.282C494.339 226.426 493.936 226.498 493.499 226.498ZM493.491 225.394C493.742 225.394 493.971 225.351 494.179 225.266C494.392 225.18 494.579 225.058 494.739 224.898C494.899 224.738 495.022 224.548 495.107 224.33C495.198 224.111 495.243 223.868 495.243 223.602C495.243 223.335 495.198 223.092 495.107 222.874C495.022 222.655 494.899 222.466 494.739 222.306C494.584 222.146 494.4 222.023 494.187 221.938C493.974 221.852 493.742 221.81 493.491 221.81C493.24 221.81 493.008 221.852 492.795 221.938C492.587 222.023 492.403 222.146 492.243 222.306C492.083 222.466 491.958 222.655 491.867 222.874C491.782 223.092 491.739 223.335 491.739 223.602C491.739 223.863 491.782 224.106 491.867 224.33C491.958 224.548 492.08 224.738 492.235 224.898C492.395 225.058 492.582 225.18 492.795 225.266C493.008 225.351 493.24 225.394 493.491 225.394ZM499.529 226.498C499.081 226.498 498.652 226.439 498.241 226.322C497.83 226.199 497.5 226.042 497.249 225.85L497.689 224.874C497.929 225.044 498.212 225.186 498.537 225.298C498.868 225.404 499.201 225.458 499.537 225.458C499.793 225.458 499.998 225.434 500.153 225.386C500.313 225.332 500.43 225.26 500.505 225.17C500.58 225.079 500.617 224.975 500.617 224.858C500.617 224.708 500.558 224.591 500.441 224.506C500.324 224.415 500.169 224.343 499.977 224.29C499.785 224.231 499.572 224.178 499.337 224.13C499.108 224.076 498.876 224.012 498.641 223.938C498.412 223.863 498.201 223.767 498.009 223.65C497.817 223.532 497.66 223.378 497.537 223.186C497.42 222.994 497.361 222.748 497.361 222.45C497.361 222.13 497.446 221.839 497.617 221.578C497.793 221.311 498.054 221.1 498.401 220.946C498.753 220.786 499.193 220.706 499.721 220.706C500.073 220.706 500.42 220.748 500.761 220.834C501.102 220.914 501.404 221.036 501.665 221.202L501.265 222.186C501.004 222.036 500.742 221.927 500.481 221.858C500.22 221.783 499.964 221.746 499.713 221.746C499.462 221.746 499.257 221.775 499.097 221.834C498.937 221.892 498.822 221.97 498.753 222.066C498.684 222.156 498.649 222.263 498.649 222.386C498.649 222.53 498.708 222.647 498.825 222.738C498.942 222.823 499.097 222.892 499.289 222.946C499.481 222.999 499.692 223.052 499.921 223.106C500.156 223.159 500.388 223.22 500.617 223.29C500.852 223.359 501.065 223.452 501.257 223.57C501.449 223.687 501.604 223.842 501.721 224.034C501.844 224.226 501.905 224.468 501.905 224.762C501.905 225.076 501.817 225.364 501.641 225.626C501.465 225.887 501.201 226.098 500.849 226.258C500.502 226.418 500.062 226.498 499.529 226.498ZM508.056 226.498C507.624 226.498 507.221 226.428 506.848 226.29C506.48 226.146 506.16 225.943 505.888 225.682C505.616 225.42 505.403 225.114 505.248 224.762C505.099 224.41 505.024 224.023 505.024 223.602C505.024 223.18 505.099 222.794 505.248 222.442C505.403 222.09 505.616 221.783 505.888 221.522C506.165 221.26 506.488 221.06 506.856 220.922C507.224 220.778 507.627 220.706 508.064 220.706C508.549 220.706 508.987 220.791 509.376 220.962C509.771 221.127 510.101 221.372 510.368 221.698L509.536 222.466C509.344 222.247 509.131 222.084 508.896 221.978C508.661 221.866 508.405 221.81 508.128 221.81C507.867 221.81 507.627 221.852 507.408 221.938C507.189 222.023 507 222.146 506.84 222.306C506.68 222.466 506.555 222.655 506.464 222.874C506.379 223.092 506.336 223.335 506.336 223.602C506.336 223.868 506.379 224.111 506.464 224.33C506.555 224.548 506.68 224.738 506.84 224.898C507 225.058 507.189 225.18 507.408 225.266C507.627 225.351 507.867 225.394 508.128 225.394C508.405 225.394 508.661 225.34 508.896 225.234C509.131 225.122 509.344 224.954 509.536 224.73L510.368 225.498C510.101 225.823 509.771 226.071 509.376 226.242C508.987 226.412 508.547 226.498 508.056 226.498ZM514.006 226.498C513.563 226.498 513.153 226.426 512.774 226.282C512.401 226.138 512.075 225.935 511.798 225.674C511.526 225.412 511.313 225.106 511.158 224.754C511.009 224.402 510.934 224.018 510.934 223.602C510.934 223.186 511.009 222.802 511.158 222.45C511.313 222.098 511.529 221.791 511.806 221.53C512.083 221.268 512.409 221.066 512.782 220.922C513.155 220.778 513.561 220.706 513.998 220.706C514.441 220.706 514.846 220.778 515.214 220.922C515.587 221.066 515.91 221.268 516.182 221.53C516.459 221.791 516.675 222.098 516.83 222.45C516.985 222.796 517.062 223.18 517.062 223.602C517.062 224.018 516.985 224.404 516.83 224.762C516.675 225.114 516.459 225.42 516.182 225.682C515.91 225.938 515.587 226.138 515.214 226.282C514.846 226.426 514.443 226.498 514.006 226.498ZM513.998 225.394C514.249 225.394 514.478 225.351 514.686 225.266C514.899 225.18 515.086 225.058 515.246 224.898C515.406 224.738 515.529 224.548 515.614 224.33C515.705 224.111 515.75 223.868 515.75 223.602C515.75 223.335 515.705 223.092 515.614 222.874C515.529 222.655 515.406 222.466 515.246 222.306C515.091 222.146 514.907 222.023 514.694 221.938C514.481 221.852 514.249 221.81 513.998 221.81C513.747 221.81 513.515 221.852 513.302 221.938C513.094 222.023 512.91 222.146 512.75 222.306C512.59 222.466 512.465 222.655 512.374 222.874C512.289 223.092 512.246 223.335 512.246 223.602C512.246 223.863 512.289 224.106 512.374 224.33C512.465 224.548 512.587 224.738 512.742 224.898C512.902 225.058 513.089 225.18 513.302 225.266C513.515 225.351 513.747 225.394 513.998 225.394ZM518.196 226.402V220.802H519.268L521.652 224.754H521.084L523.428 220.802H524.492L524.508 226.402H523.292L523.284 222.666H523.508L521.636 225.81H521.052L519.14 222.666H519.412V226.402H518.196ZM525.997 226.402V220.802H527.069L529.453 224.754H528.885L531.229 220.802H532.293L532.309 226.402H531.093L531.085 222.666H531.309L529.437 225.81H528.853L526.941 222.666H527.213V226.402H525.997ZM534.989 223.058H537.685V224.066H534.989V223.058ZM535.085 225.362H538.133V226.402H533.797V220.802H538.029V221.842H535.085V225.362ZM539.324 226.402V220.802H540.396L543.7 224.834H543.18V220.802H544.46V226.402H543.396L540.084 222.37H540.604V226.402H539.324ZM547.105 226.402V221.858H545.313V220.802H550.193V221.858H548.401V226.402H547.105ZM552.243 223.058H554.939V224.066H552.243V223.058ZM552.339 225.362H555.387V226.402H551.051V220.802H555.283V221.842H552.339V225.362ZM552.443 220.346L553.523 219.194H554.867L553.419 220.346H552.443ZM558.418 226.498C557.97 226.498 557.541 226.439 557.13 226.322C556.719 226.199 556.389 226.042 556.138 225.85L556.578 224.874C556.818 225.044 557.101 225.186 557.426 225.298C557.757 225.404 558.09 225.458 558.426 225.458C558.682 225.458 558.887 225.434 559.042 225.386C559.202 225.332 559.319 225.26 559.394 225.17C559.469 225.079 559.506 224.975 559.506 224.858C559.506 224.708 559.447 224.591 559.33 224.506C559.213 224.415 559.058 224.343 558.866 224.29C558.674 224.231 558.461 224.178 558.226 224.13C557.997 224.076 557.765 224.012 557.53 223.938C557.301 223.863 557.09 223.767 556.898 223.65C556.706 223.532 556.549 223.378 556.426 223.186C556.309 222.994 556.25 222.748 556.25 222.45C556.25 222.13 556.335 221.839 556.506 221.578C556.682 221.311 556.943 221.1 557.29 220.946C557.642 220.786 558.082 220.706 558.61 220.706C558.962 220.706 559.309 220.748 559.65 220.834C559.991 220.914 560.293 221.036 560.554 221.202L560.154 222.186C559.893 222.036 559.631 221.927 559.37 221.858C559.109 221.783 558.853 221.746 558.602 221.746C558.351 221.746 558.146 221.775 557.986 221.834C557.826 221.892 557.711 221.97 557.642 222.066C557.573 222.156 557.538 222.263 557.538 222.386C557.538 222.53 557.597 222.647 557.714 222.738C557.831 222.823 557.986 222.892 558.178 222.946C558.37 222.999 558.581 223.052 558.81 223.106C559.045 223.159 559.277 223.22 559.506 223.29C559.741 223.359 559.954 223.452 560.146 223.57C560.338 223.687 560.493 223.842 560.61 224.034C560.733 224.226 560.794 224.468 560.794 224.762C560.794 225.076 560.706 225.364 560.53 225.626C560.354 225.887 560.09 226.098 559.738 226.258C559.391 226.418 558.951 226.498 558.418 226.498Z" fill="white"/>
<path d="M405 251.644C405 245.793 409.743 241.05 415.594 241.05H554.406C560.257 241.05 565 245.793 565 251.644V251.644C565 257.495 560.257 262.237 554.406 262.237H415.594C409.743 262.237 405 257.495 405 251.644V251.644Z" fill="#47B6A6"/>
<path d="M462.935 250.82H465.631V251.828H462.935V250.82ZM463.031 253.124H466.079V254.164H461.743V248.564H465.975V249.604H463.031V253.124ZM469.696 254.164V248.564H472.12C472.621 248.564 473.053 248.647 473.416 248.812C473.778 248.972 474.058 249.204 474.256 249.508C474.453 249.812 474.552 250.175 474.552 250.596C474.552 251.012 474.453 251.372 474.256 251.676C474.058 251.98 473.778 252.215 473.416 252.38C473.053 252.54 472.621 252.62 472.12 252.62H470.416L470.992 252.036V254.164H469.696ZM470.992 252.18L470.416 251.564H472.048C472.448 251.564 472.746 251.479 472.944 251.308C473.141 251.138 473.24 250.9 473.24 250.596C473.24 250.287 473.141 250.047 472.944 249.876C472.746 249.706 472.448 249.62 472.048 249.62H470.416L470.992 249.004V252.18ZM478.435 254.26C477.992 254.26 477.582 254.188 477.203 254.044C476.83 253.9 476.504 253.698 476.227 253.436C475.955 253.175 475.742 252.868 475.587 252.516C475.438 252.164 475.363 251.78 475.363 251.364C475.363 250.948 475.438 250.564 475.587 250.212C475.742 249.86 475.958 249.554 476.235 249.292C476.512 249.031 476.838 248.828 477.211 248.684C477.584 248.54 477.99 248.468 478.427 248.468C478.87 248.468 479.275 248.54 479.643 248.684C480.016 248.828 480.339 249.031 480.611 249.292C480.888 249.554 481.104 249.86 481.259 250.212C481.414 250.559 481.491 250.943 481.491 251.364C481.491 251.78 481.414 252.167 481.259 252.524C481.104 252.876 480.888 253.183 480.611 253.444C480.339 253.7 480.016 253.9 479.643 254.044C479.275 254.188 478.872 254.26 478.435 254.26ZM478.427 253.156C478.678 253.156 478.907 253.114 479.115 253.028C479.328 252.943 479.515 252.82 479.675 252.66C479.835 252.5 479.958 252.311 480.043 252.092C480.134 251.874 480.179 251.631 480.179 251.364C480.179 251.098 480.134 250.855 480.043 250.636C479.958 250.418 479.835 250.228 479.675 250.068C479.52 249.908 479.336 249.786 479.123 249.7C478.91 249.615 478.678 249.572 478.427 249.572C478.176 249.572 477.944 249.615 477.731 249.7C477.523 249.786 477.339 249.908 477.179 250.068C477.019 250.228 476.894 250.418 476.803 250.636C476.718 250.855 476.675 251.098 476.675 251.364C476.675 251.626 476.718 251.868 476.803 252.092C476.894 252.311 477.016 252.5 477.171 252.66C477.331 252.82 477.518 252.943 477.731 253.028C477.944 253.114 478.176 253.156 478.427 253.156ZM484.465 254.26C484.017 254.26 483.588 254.202 483.177 254.084C482.766 253.962 482.436 253.804 482.185 253.612L482.625 252.636C482.865 252.807 483.148 252.948 483.473 253.06C483.804 253.167 484.137 253.22 484.473 253.22C484.729 253.22 484.934 253.196 485.089 253.148C485.249 253.095 485.366 253.023 485.441 252.932C485.516 252.842 485.553 252.738 485.553 252.62C485.553 252.471 485.494 252.354 485.377 252.268C485.26 252.178 485.105 252.106 484.913 252.052C484.721 251.994 484.508 251.94 484.273 251.892C484.044 251.839 483.812 251.775 483.577 251.7C483.348 251.626 483.137 251.53 482.945 251.412C482.753 251.295 482.596 251.14 482.473 250.948C482.356 250.756 482.297 250.511 482.297 250.212C482.297 249.892 482.382 249.602 482.553 249.34C482.729 249.074 482.99 248.863 483.337 248.708C483.689 248.548 484.129 248.468 484.657 248.468C485.009 248.468 485.356 248.511 485.697 248.596C486.038 248.676 486.34 248.799 486.601 248.964L486.201 249.948C485.94 249.799 485.678 249.69 485.417 249.62C485.156 249.546 484.9 249.508 484.649 249.508C484.398 249.508 484.193 249.538 484.033 249.596C483.873 249.655 483.758 249.732 483.689 249.828C483.62 249.919 483.585 250.026 483.585 250.148C483.585 250.292 483.644 250.41 483.761 250.5C483.878 250.586 484.033 250.655 484.225 250.708C484.417 250.762 484.628 250.815 484.857 250.868C485.092 250.922 485.324 250.983 485.553 251.052C485.788 251.122 486.001 251.215 486.193 251.332C486.385 251.45 486.54 251.604 486.657 251.796C486.78 251.988 486.841 252.231 486.841 252.524C486.841 252.839 486.753 253.127 486.577 253.388C486.401 253.65 486.137 253.86 485.785 254.02C485.438 254.18 484.998 254.26 484.465 254.26ZM488.968 254.164V249.62H487.176V248.564H492.056V249.62H490.264V254.164H488.968ZM494.106 250.82H496.802V251.828H494.106V250.82ZM494.202 253.124H497.25V254.164H492.914V248.564H497.146V249.604H494.202V253.124ZM498.441 254.164V248.564H500.865C501.366 248.564 501.798 248.647 502.161 248.812C502.524 248.972 502.804 249.204 503.001 249.508C503.198 249.812 503.297 250.175 503.297 250.596C503.297 251.012 503.198 251.372 503.001 251.676C502.804 251.975 502.524 252.204 502.161 252.364C501.798 252.524 501.366 252.604 500.865 252.604H499.161L499.737 252.036V254.164H498.441ZM502.001 254.164L500.601 252.132H501.985L503.401 254.164H502.001ZM499.737 252.18L499.161 251.572H500.793C501.193 251.572 501.492 251.487 501.689 251.316C501.886 251.14 501.985 250.9 501.985 250.596C501.985 250.287 501.886 250.047 501.689 249.876C501.492 249.706 501.193 249.62 500.793 249.62H499.161L499.737 249.004V252.18ZM506.324 254.26C505.876 254.26 505.446 254.202 505.036 254.084C504.625 253.962 504.294 253.804 504.044 253.612L504.484 252.636C504.724 252.807 505.006 252.948 505.332 253.06C505.662 253.167 505.996 253.22 506.332 253.22C506.588 253.22 506.793 253.196 506.948 253.148C507.108 253.095 507.225 253.023 507.3 252.932C507.374 252.842 507.412 252.738 507.412 252.62C507.412 252.471 507.353 252.354 507.236 252.268C507.118 252.178 506.964 252.106 506.772 252.052C506.58 251.994 506.366 251.94 506.132 251.892C505.902 251.839 505.67 251.775 505.436 251.7C505.206 251.626 504.996 251.53 504.804 251.412C504.612 251.295 504.454 251.14 504.332 250.948C504.214 250.756 504.156 250.511 504.156 250.212C504.156 249.892 504.241 249.602 504.412 249.34C504.588 249.074 504.849 248.863 505.196 248.708C505.548 248.548 505.988 248.468 506.516 248.468C506.868 248.468 507.214 248.511 507.556 248.596C507.897 248.676 508.198 248.799 508.46 248.964L508.06 249.948C507.798 249.799 507.537 249.69 507.276 249.62C507.014 249.546 506.758 249.508 506.508 249.508C506.257 249.508 506.052 249.538 505.892 249.596C505.732 249.655 505.617 249.732 505.548 249.828C505.478 249.919 505.444 250.026 505.444 250.148C505.444 250.292 505.502 250.41 505.62 250.5C505.737 250.586 505.892 250.655 506.084 250.708C506.276 250.762 506.486 250.815 506.716 250.868C506.95 250.922 507.182 250.983 507.412 251.052C507.646 251.122 507.86 251.215 508.052 251.332C508.244 251.45 508.398 251.604 508.516 251.796C508.638 251.988 508.7 252.231 508.7 252.524C508.7 252.839 508.612 253.127 508.436 253.388C508.26 253.65 507.996 253.86 507.644 254.02C507.297 254.18 506.857 254.26 506.324 254.26Z" fill="white"/>
<path d="M405 279.406C405 273.556 409.743 268.813 415.594 268.813H554.406C560.257 268.813 565 273.556 565 279.406V279.406C565 285.257 560.257 290 554.406 290H415.594C409.743 290 405 285.257 405 279.406V279.406Z" fill="#47B6A6"/>
<path d="M466.327 278.583H469.023V279.591H466.327V278.583ZM466.423 280.887H469.471V281.927H465.135V276.327H469.367V277.367H466.423V280.887ZM474.768 281.927L472.352 276.327H473.752L475.864 281.287H475.04L477.184 276.327H478.472L476.048 281.927H474.768ZM479.1 281.927V276.327H480.396V281.927H479.1ZM481.885 281.927V276.327H484.429C485.037 276.327 485.573 276.444 486.037 276.679C486.501 276.908 486.863 277.231 487.125 277.647C487.386 278.063 487.517 278.556 487.517 279.127C487.517 279.692 487.386 280.186 487.125 280.607C486.863 281.023 486.501 281.348 486.037 281.583C485.573 281.812 485.037 281.927 484.429 281.927H481.885ZM483.181 280.863H484.365C484.738 280.863 485.061 280.794 485.333 280.655C485.61 280.511 485.823 280.308 485.973 280.047C486.127 279.786 486.205 279.479 486.205 279.127C486.205 278.77 486.127 278.463 485.973 278.207C485.823 277.946 485.61 277.746 485.333 277.607C485.061 277.463 484.738 277.391 484.365 277.391H483.181V280.863ZM489.846 278.583H492.542V279.591H489.846V278.583ZM489.942 280.887H492.99V281.927H488.654V276.327H492.886V277.367H489.942V280.887ZM496.901 282.023C496.459 282.023 496.048 281.951 495.669 281.807C495.296 281.663 494.971 281.46 494.693 281.199C494.421 280.938 494.208 280.631 494.053 280.279C493.904 279.927 493.829 279.543 493.829 279.127C493.829 278.711 493.904 278.327 494.053 277.975C494.208 277.623 494.424 277.316 494.701 277.055C494.979 276.794 495.304 276.591 495.677 276.447C496.051 276.303 496.456 276.231 496.893 276.231C497.336 276.231 497.741 276.303 498.109 276.447C498.483 276.591 498.805 276.794 499.077 277.055C499.355 277.316 499.571 277.623 499.725 277.975C499.88 278.322 499.957 278.706 499.957 279.127C499.957 279.543 499.88 279.93 499.725 280.287C499.571 280.639 499.355 280.946 499.077 281.207C498.805 281.463 498.483 281.663 498.109 281.807C497.741 281.951 497.339 282.023 496.901 282.023ZM496.893 280.919C497.144 280.919 497.373 280.876 497.581 280.791C497.795 280.706 497.981 280.583 498.141 280.423C498.301 280.263 498.424 280.074 498.509 279.855C498.6 279.636 498.645 279.394 498.645 279.127C498.645 278.86 498.6 278.618 498.509 278.399C498.424 278.18 498.301 277.991 498.141 277.831C497.987 277.671 497.803 277.548 497.589 277.463C497.376 277.378 497.144 277.335 496.893 277.335C496.643 277.335 496.411 277.378 496.197 277.463C495.989 277.548 495.805 277.671 495.645 277.831C495.485 277.991 495.36 278.18 495.269 278.399C495.184 278.618 495.141 278.86 495.141 279.127C495.141 279.388 495.184 279.631 495.269 279.855C495.36 280.074 495.483 280.263 495.637 280.423C495.797 280.583 495.984 280.706 496.197 280.791C496.411 280.876 496.643 280.919 496.893 280.919ZM502.931 282.023C502.483 282.023 502.054 281.964 501.643 281.847C501.233 281.724 500.902 281.567 500.651 281.375L501.091 280.399C501.331 280.57 501.614 280.711 501.939 280.823C502.27 280.93 502.603 280.983 502.939 280.983C503.195 280.983 503.401 280.959 503.555 280.911C503.715 280.858 503.833 280.786 503.907 280.695C503.982 280.604 504.019 280.5 504.019 280.383C504.019 280.234 503.961 280.116 503.843 280.031C503.726 279.94 503.571 279.868 503.379 279.815C503.187 279.756 502.974 279.703 502.739 279.655C502.51 279.602 502.278 279.538 502.043 279.463C501.814 279.388 501.603 279.292 501.411 279.175C501.219 279.058 501.062 278.903 500.939 278.711C500.822 278.519 500.763 278.274 500.763 277.975C500.763 277.655 500.849 277.364 501.019 277.103C501.195 276.836 501.457 276.626 501.803 276.471C502.155 276.311 502.595 276.231 503.123 276.231C503.475 276.231 503.822 276.274 504.163 276.359C504.505 276.439 504.806 276.562 505.067 276.727L504.667 277.711C504.406 277.562 504.145 277.452 503.883 277.383C503.622 277.308 503.366 277.271 503.115 277.271C502.865 277.271 502.659 277.3 502.499 277.359C502.339 277.418 502.225 277.495 502.155 277.591C502.086 277.682 502.051 277.788 502.051 277.911C502.051 278.055 502.11 278.172 502.227 278.263C502.345 278.348 502.499 278.418 502.691 278.471C502.883 278.524 503.094 278.578 503.323 278.631C503.558 278.684 503.79 278.746 504.019 278.815C504.254 278.884 504.467 278.978 504.659 279.095C504.851 279.212 505.006 279.367 505.123 279.559C505.246 279.751 505.307 279.994 505.307 280.287C505.307 280.602 505.219 280.89 505.043 281.151C504.867 281.412 504.603 281.623 504.251 281.783C503.905 281.943 503.465 282.023 502.931 282.023Z" fill="white"/>
<path d="M81 303.559C81 296.623 86.6228 291 93.5588 291H357.441C364.377 291 370 296.623 370 303.559V303.559C370 310.495 364.377 316.118 357.441 316.118H93.5588C86.6228 316.118 81 310.495 81 303.559V303.559Z" fill="#112D63"/>
<path d="M100.864 308.132C100.328 308.132 99.7968 308.062 99.2688 307.923C98.7408 307.776 98.2935 307.571 97.9268 307.307L98.6198 305.943C98.9131 306.156 99.2541 306.324 99.6428 306.449C100.031 306.574 100.424 306.636 100.82 306.636C101.267 306.636 101.619 306.548 101.876 306.372C102.132 306.196 102.261 305.954 102.261 305.646C102.261 305.353 102.147 305.122 101.92 304.953C101.692 304.784 101.326 304.7 100.82 304.7H100.006V303.523L102.151 301.092L102.349 301.73H98.3118V300.3H103.702V301.455L101.568 303.886L100.666 303.369H101.183C102.129 303.369 102.844 303.582 103.328 304.007C103.812 304.432 104.054 304.979 104.054 305.646C104.054 306.079 103.94 306.486 103.713 306.867C103.485 307.241 103.137 307.545 102.668 307.78C102.198 308.015 101.597 308.132 100.864 308.132ZM108.397 308.132C107.766 308.132 107.201 307.978 106.703 307.67C106.204 307.355 105.812 306.9 105.526 306.306C105.24 305.712 105.097 304.993 105.097 304.15C105.097 303.307 105.24 302.588 105.526 301.994C105.812 301.4 106.204 300.949 106.703 300.641C107.201 300.326 107.766 300.168 108.397 300.168C109.035 300.168 109.599 300.326 110.091 300.641C110.589 300.949 110.982 301.4 111.268 301.994C111.554 302.588 111.697 303.307 111.697 304.15C111.697 304.993 111.554 305.712 111.268 306.306C110.982 306.9 110.589 307.355 110.091 307.67C109.599 307.978 109.035 308.132 108.397 308.132ZM108.397 306.625C108.697 306.625 108.958 306.541 109.178 306.372C109.405 306.203 109.581 305.936 109.706 305.569C109.838 305.202 109.904 304.729 109.904 304.15C109.904 303.571 109.838 303.098 109.706 302.731C109.581 302.364 109.405 302.097 109.178 301.928C108.958 301.759 108.697 301.675 108.397 301.675C108.103 301.675 107.843 301.759 107.616 301.928C107.396 302.097 107.22 302.364 107.088 302.731C106.963 303.098 106.901 303.571 106.901 304.15C106.901 304.729 106.963 305.202 107.088 305.569C107.22 305.936 107.396 306.203 107.616 306.372C107.843 306.541 108.103 306.625 108.397 306.625ZM119.022 308.132C118.457 308.132 117.955 308.04 117.515 307.857C117.075 307.674 116.726 307.424 116.47 307.109C116.213 306.794 116.085 306.431 116.085 306.02C116.085 305.639 116.169 305.298 116.338 304.997C116.506 304.689 116.774 304.403 117.141 304.139C117.507 303.868 117.973 303.604 118.538 303.347C118.948 303.156 119.271 302.988 119.506 302.841C119.74 302.694 119.905 302.555 120.001 302.423C120.096 302.284 120.144 302.144 120.144 302.005C120.144 301.814 120.078 301.66 119.946 301.543C119.821 301.426 119.634 301.367 119.385 301.367C119.121 301.367 118.915 301.433 118.769 301.565C118.622 301.697 118.549 301.866 118.549 302.071C118.549 302.181 118.571 302.291 118.615 302.401C118.659 302.504 118.743 302.625 118.868 302.764C118.992 302.896 119.168 303.068 119.396 303.281L123.455 307.043L122.52 308.132L118.043 303.974C117.786 303.739 117.581 303.519 117.427 303.314C117.273 303.109 117.159 302.907 117.086 302.709C117.02 302.511 116.987 302.306 116.987 302.093C116.987 301.719 117.086 301.389 117.284 301.103C117.482 300.817 117.76 300.597 118.12 300.443C118.479 300.282 118.901 300.201 119.385 300.201C119.832 300.201 120.217 300.274 120.54 300.421C120.87 300.56 121.126 300.762 121.31 301.026C121.5 301.29 121.596 301.605 121.596 301.972C121.596 302.295 121.515 302.592 121.354 302.863C121.192 303.127 120.939 303.376 120.595 303.611C120.257 303.846 119.814 304.084 119.264 304.326C118.89 304.495 118.593 304.66 118.373 304.821C118.16 304.975 118.006 305.133 117.911 305.294C117.815 305.455 117.768 305.635 117.768 305.833C117.768 306.016 117.823 306.181 117.933 306.328C118.05 306.475 118.211 306.588 118.417 306.669C118.622 306.75 118.864 306.79 119.143 306.79C119.59 306.79 120.001 306.687 120.375 306.482C120.749 306.269 121.064 305.958 121.321 305.547C121.585 305.129 121.772 304.623 121.882 304.029L123.257 304.458C123.103 305.206 122.828 305.855 122.432 306.405C122.036 306.955 121.548 307.38 120.969 307.681C120.389 307.982 119.74 308.132 119.022 308.132ZM130.173 308.132C129.637 308.132 129.106 308.062 128.578 307.923C128.05 307.776 127.602 307.571 127.236 307.307L127.929 305.943C128.222 306.156 128.563 306.324 128.952 306.449C129.34 306.574 129.733 306.636 130.129 306.636C130.576 306.636 130.928 306.548 131.185 306.372C131.441 306.196 131.57 305.954 131.57 305.646C131.57 305.353 131.456 305.122 131.229 304.953C131.001 304.784 130.635 304.7 130.129 304.7H129.315V303.523L131.46 301.092L131.658 301.73H127.621V300.3H133.011V301.455L130.877 303.886L129.975 303.369H130.492C131.438 303.369 132.153 303.582 132.637 304.007C133.121 304.432 133.363 304.979 133.363 305.646C133.363 306.079 133.249 306.486 133.022 306.867C132.794 307.241 132.446 307.545 131.977 307.78C131.507 308.015 130.906 308.132 130.173 308.132ZM135.594 308V300.96L136.364 301.73H134.054V300.3H137.376V308H135.594ZM142.752 308V300.3H144.226L147.504 305.734H146.723L149.946 300.3H151.409L151.431 308H149.759L149.748 302.863H150.056L147.482 307.186H146.679L144.05 302.863H144.424V308H142.752ZM152.466 308L155.898 300.3H157.658L161.101 308H159.231L156.415 301.202H157.119L154.292 308H152.466ZM154.182 306.35L154.655 304.997H158.615L159.099 306.35H154.182ZM162.12 308V300.3H163.902V308H162.12ZM168.735 308V306.845L171.705 304.04C171.939 303.827 172.112 303.637 172.222 303.468C172.332 303.299 172.405 303.145 172.442 303.006C172.486 302.867 172.508 302.738 172.508 302.621C172.508 302.313 172.401 302.078 172.189 301.917C171.983 301.748 171.679 301.664 171.276 301.664C170.953 301.664 170.652 301.726 170.374 301.851C170.102 301.976 169.871 302.17 169.681 302.434L168.383 301.598C168.676 301.158 169.087 300.81 169.615 300.553C170.143 300.296 170.751 300.168 171.441 300.168C172.013 300.168 172.511 300.263 172.937 300.454C173.369 300.637 173.703 300.898 173.938 301.235C174.18 301.572 174.301 301.976 174.301 302.445C174.301 302.694 174.268 302.944 174.202 303.193C174.143 303.435 174.018 303.692 173.828 303.963C173.644 304.234 173.373 304.539 173.014 304.876L170.55 307.197L170.209 306.548H174.554V308H168.735ZM178.809 308.132C178.178 308.132 177.614 307.978 177.115 307.67C176.616 307.355 176.224 306.9 175.938 306.306C175.652 305.712 175.509 304.993 175.509 304.15C175.509 303.307 175.652 302.588 175.938 301.994C176.224 301.4 176.616 300.949 177.115 300.641C177.614 300.326 178.178 300.168 178.809 300.168C179.447 300.168 180.012 300.326 180.503 300.641C181.002 300.949 181.394 301.4 181.68 301.994C181.966 302.588 182.109 303.307 182.109 304.15C182.109 304.993 181.966 305.712 181.68 306.306C181.394 306.9 181.002 307.355 180.503 307.67C180.012 307.978 179.447 308.132 178.809 308.132ZM178.809 306.625C179.11 306.625 179.37 306.541 179.59 306.372C179.817 306.203 179.993 305.936 180.118 305.569C180.25 305.202 180.316 304.729 180.316 304.15C180.316 303.571 180.25 303.098 180.118 302.731C179.993 302.364 179.817 302.097 179.59 301.928C179.37 301.759 179.11 301.675 178.809 301.675C178.516 301.675 178.255 301.759 178.028 301.928C177.808 302.097 177.632 302.364 177.5 302.731C177.375 303.098 177.313 303.571 177.313 304.15C177.313 304.729 177.375 305.202 177.5 305.569C177.632 305.936 177.808 306.203 178.028 306.372C178.255 306.541 178.516 306.625 178.809 306.625ZM183.086 308V306.845L186.056 304.04C186.291 303.827 186.463 303.637 186.573 303.468C186.683 303.299 186.756 303.145 186.793 303.006C186.837 302.867 186.859 302.738 186.859 302.621C186.859 302.313 186.753 302.078 186.54 301.917C186.335 301.748 186.03 301.664 185.627 301.664C185.304 301.664 185.004 301.726 184.725 301.851C184.454 301.976 184.223 302.17 184.032 302.434L182.734 301.598C183.027 301.158 183.438 300.81 183.966 300.553C184.494 300.296 185.103 300.168 185.792 300.168C186.364 300.168 186.863 300.263 187.288 300.454C187.721 300.637 188.054 300.898 188.289 301.235C188.531 301.572 188.652 301.976 188.652 302.445C188.652 302.694 188.619 302.944 188.553 303.193C188.494 303.435 188.37 303.692 188.179 303.963C187.996 304.234 187.724 304.539 187.365 304.876L184.901 307.197L184.56 306.548H188.905V308H183.086ZM189.654 306.383V305.184L193.284 300.3H195.154L191.601 305.184L190.732 304.931H196.793V306.383H189.654ZM193.801 308V306.383L193.856 304.931V303.49H195.539V308H193.801ZM197.827 309.694L198.553 307.054L198.795 308.044C198.479 308.044 198.219 307.952 198.014 307.769C197.816 307.586 197.717 307.333 197.717 307.01C197.717 306.687 197.819 306.431 198.025 306.24C198.23 306.049 198.483 305.954 198.784 305.954C199.092 305.954 199.345 306.053 199.543 306.251C199.741 306.442 199.84 306.695 199.84 307.01C199.84 307.105 199.832 307.201 199.818 307.296C199.803 307.384 199.774 307.494 199.73 307.626C199.693 307.751 199.631 307.912 199.543 308.11L198.916 309.694H197.827ZM209.959 300.3H211.741V308H209.959V300.3ZM206.461 308H204.679V300.3H206.461V308ZM210.091 304.843H206.329V303.336H210.091V304.843ZM217.523 308.132C216.914 308.132 216.349 308.033 215.829 307.835C215.315 307.637 214.868 307.358 214.487 306.999C214.113 306.64 213.819 306.218 213.607 305.734C213.401 305.25 213.299 304.722 213.299 304.15C213.299 303.578 213.401 303.05 213.607 302.566C213.819 302.082 214.116 301.66 214.498 301.301C214.879 300.942 215.326 300.663 215.84 300.465C216.353 300.267 216.91 300.168 217.512 300.168C218.12 300.168 218.678 300.267 219.184 300.465C219.697 300.663 220.141 300.942 220.515 301.301C220.896 301.66 221.193 302.082 221.406 302.566C221.618 303.043 221.725 303.571 221.725 304.15C221.725 304.722 221.618 305.254 221.406 305.745C221.193 306.229 220.896 306.651 220.515 307.01C220.141 307.362 219.697 307.637 219.184 307.835C218.678 308.033 218.124 308.132 217.523 308.132ZM217.512 306.614C217.856 306.614 218.172 306.555 218.458 306.438C218.751 306.321 219.008 306.152 219.228 305.932C219.448 305.712 219.616 305.452 219.734 305.151C219.858 304.85 219.921 304.517 219.921 304.15C219.921 303.783 219.858 303.45 219.734 303.149C219.616 302.848 219.448 302.588 219.228 302.368C219.015 302.148 218.762 301.979 218.469 301.862C218.175 301.745 217.856 301.686 217.512 301.686C217.167 301.686 216.848 301.745 216.555 301.862C216.269 301.979 216.016 302.148 215.796 302.368C215.576 302.588 215.403 302.848 215.279 303.149C215.161 303.45 215.103 303.783 215.103 304.15C215.103 304.509 215.161 304.843 215.279 305.151C215.403 305.452 215.572 305.712 215.785 305.932C216.005 306.152 216.261 306.321 216.555 306.438C216.848 306.555 217.167 306.614 217.512 306.614ZM215.301 299.673L216.753 298.089H218.271L219.723 299.673H218.469L216.951 298.353H218.073L216.555 299.673H215.301ZM224.772 308V301.752H222.308V300.3H229.018V301.752H226.554V308H224.772ZM231.835 303.402H235.542V304.788H231.835V303.402ZM231.967 306.57H236.158V308H230.196V300.3H236.015V301.73H231.967V306.57ZM237.796 308V300.3H239.578V306.548H243.439V308H237.796ZM247.99 308V300.3H249.464L252.742 305.734H251.961L255.184 300.3H256.647L256.669 308H254.997L254.986 302.863H255.294L252.72 307.186H251.917L249.288 302.863H249.662V308H247.99ZM260.355 303.402H264.062V304.788H260.355V303.402ZM260.487 306.57H264.678V308H258.716V300.3H264.535V301.73H260.487V306.57ZM266.316 308V300.3H269.649C270.338 300.3 270.932 300.414 271.431 300.641C271.93 300.861 272.315 301.18 272.586 301.598C272.857 302.016 272.993 302.515 272.993 303.094C272.993 303.666 272.857 304.161 272.586 304.579C272.315 304.99 271.93 305.305 271.431 305.525C270.932 305.745 270.338 305.855 269.649 305.855H267.306L268.098 305.074V308H266.316ZM271.211 308L269.286 305.206H271.189L273.136 308H271.211ZM268.098 305.272L267.306 304.436H269.55C270.1 304.436 270.511 304.319 270.782 304.084C271.053 303.842 271.189 303.512 271.189 303.094C271.189 302.669 271.053 302.339 270.782 302.104C270.511 301.869 270.1 301.752 269.55 301.752H267.306L268.098 300.905V305.272ZM278.31 308.132C277.716 308.132 277.162 308.037 276.649 307.846C276.143 307.648 275.703 307.369 275.329 307.01C274.955 306.651 274.661 306.229 274.449 305.745C274.243 305.261 274.141 304.729 274.141 304.15C274.141 303.571 274.243 303.039 274.449 302.555C274.661 302.071 274.955 301.649 275.329 301.29C275.71 300.931 276.154 300.656 276.66 300.465C277.166 300.267 277.719 300.168 278.321 300.168C278.988 300.168 279.589 300.285 280.125 300.52C280.667 300.747 281.122 301.085 281.489 301.532L280.345 302.588C280.081 302.287 279.787 302.064 279.465 301.917C279.142 301.763 278.79 301.686 278.409 301.686C278.049 301.686 277.719 301.745 277.419 301.862C277.118 301.979 276.858 302.148 276.638 302.368C276.418 302.588 276.245 302.848 276.121 303.149C276.003 303.45 275.945 303.783 275.945 304.15C275.945 304.517 276.003 304.85 276.121 305.151C276.245 305.452 276.418 305.712 276.638 305.932C276.858 306.152 277.118 306.321 277.419 306.438C277.719 306.555 278.049 306.614 278.409 306.614C278.79 306.614 279.142 306.541 279.465 306.394C279.787 306.24 280.081 306.009 280.345 305.701L281.489 306.757C281.122 307.204 280.667 307.545 280.125 307.78C279.589 308.015 278.984 308.132 278.31 308.132ZM286.29 308.132C285.198 308.132 284.343 307.828 283.727 307.219C283.111 306.61 282.803 305.741 282.803 304.612V300.3H284.585V304.546C284.585 305.279 284.736 305.807 285.036 306.13C285.337 306.453 285.759 306.614 286.301 306.614C286.844 306.614 287.266 306.453 287.566 306.13C287.867 305.807 288.017 305.279 288.017 304.546V300.3H289.777V304.612C289.777 305.741 289.469 306.61 288.853 307.219C288.237 307.828 287.383 308.132 286.29 308.132ZM291.758 308V300.3H295.091C295.78 300.3 296.374 300.414 296.873 300.641C297.372 300.861 297.757 301.18 298.028 301.598C298.299 302.016 298.435 302.515 298.435 303.094C298.435 303.666 298.299 304.161 298.028 304.579C297.757 304.99 297.372 305.305 296.873 305.525C296.374 305.745 295.78 305.855 295.091 305.855H292.748L293.54 305.074V308H291.758ZM296.653 308L294.728 305.206H296.631L298.578 308H296.653ZM293.54 305.272L292.748 304.436H294.992C295.542 304.436 295.953 304.319 296.224 304.084C296.495 303.842 296.631 303.512 296.631 303.094C296.631 302.669 296.495 302.339 296.224 302.104C295.953 301.869 295.542 301.752 294.992 301.752H292.748L293.54 300.905V305.272ZM301.706 303.402H305.413V304.788H301.706V303.402ZM301.838 306.57H306.029V308H300.067V300.3H305.886V301.73H301.838V306.57ZM307.356 309.694L308.082 307.054L308.324 308.044C308.009 308.044 307.749 307.952 307.543 307.769C307.345 307.586 307.246 307.333 307.246 307.01C307.246 306.687 307.349 306.431 307.554 306.24C307.76 306.049 308.013 305.954 308.313 305.954C308.621 305.954 308.874 306.053 309.072 306.251C309.27 306.442 309.369 306.695 309.369 307.01C309.369 307.105 309.362 307.201 309.347 307.296C309.333 307.384 309.303 307.494 309.259 307.626C309.223 307.751 309.16 307.912 309.072 308.11L308.445 309.694H307.356ZM313.196 308L316.628 300.3H318.388L321.831 308H319.961L317.145 301.202H317.849L315.022 308H313.196ZM314.912 306.35L315.385 304.997H319.345L319.829 306.35H314.912ZM322.85 308V300.3H324.632V306.548H328.493V308H322.85ZM333.298 308.132C332.689 308.132 332.128 308.037 331.615 307.846C331.109 307.648 330.665 307.369 330.284 307.01C329.91 306.651 329.617 306.229 329.404 305.745C329.199 305.261 329.096 304.729 329.096 304.15C329.096 303.571 329.199 303.039 329.404 302.555C329.617 302.071 329.914 301.649 330.295 301.29C330.676 300.931 331.124 300.656 331.637 300.465C332.15 300.267 332.715 300.168 333.331 300.168C334.013 300.168 334.625 300.282 335.168 300.509C335.718 300.736 336.18 301.066 336.554 301.499L335.41 302.555C335.131 302.262 334.827 302.045 334.497 301.906C334.167 301.759 333.808 301.686 333.419 301.686C333.045 301.686 332.704 301.745 332.396 301.862C332.088 301.979 331.82 302.148 331.593 302.368C331.373 302.588 331.201 302.848 331.076 303.149C330.959 303.45 330.9 303.783 330.9 304.15C330.9 304.509 330.959 304.839 331.076 305.14C331.201 305.441 331.373 305.705 331.593 305.932C331.82 306.152 332.084 306.321 332.385 306.438C332.693 306.555 333.03 306.614 333.397 306.614C333.749 306.614 334.09 306.559 334.42 306.449C334.757 306.332 335.084 306.137 335.399 305.866L336.411 307.153C335.993 307.468 335.505 307.71 334.948 307.879C334.398 308.048 333.848 308.132 333.298 308.132ZM334.783 306.922V304.029H336.411V307.153L334.783 306.922ZM339.925 303.402H343.632V304.788H339.925V303.402ZM340.057 306.57H344.248V308H338.286V300.3H344.105V301.73H340.057V306.57ZM345.886 308V300.3H349.219C349.909 300.3 350.503 300.414 351.001 300.641C351.5 300.861 351.885 301.18 352.156 301.598C352.428 302.016 352.563 302.515 352.563 303.094C352.563 303.666 352.428 304.161 352.156 304.579C351.885 304.99 351.5 305.305 351.001 305.525C350.503 305.745 349.909 305.855 349.219 305.855H346.876L347.668 305.074V308H345.886ZM350.781 308L348.856 305.206H350.759L352.706 308H350.781ZM347.668 305.272L346.876 304.436H349.12C349.67 304.436 350.081 304.319 350.352 304.084C350.624 303.842 350.759 303.512 350.759 303.094C350.759 302.669 350.624 302.339 350.352 302.104C350.081 301.869 349.67 301.752 349.12 301.752H346.876L347.668 300.905V305.272Z" fill="white"/>
<path d="M224.08 131.84H237.08V137.76H224.08V131.84ZM224.64 142.88H239.28V149H216.8V121H238.76V127.12H224.64V142.88ZM226.28 118.72L218.76 112.64H226.36L231.72 118.72H226.28ZM243.675 149V121H250.195L261.795 140.04H258.355L269.635 121H276.155L276.235 149H268.955L268.875 132.08H270.115L261.675 146.24H258.155L249.475 132.08H250.995V149H243.675ZM289.119 131.84H302.119V137.76H289.119V131.84ZM289.679 142.88H304.319V149H281.839V121H303.799V127.12H289.679V142.88Z" fill="#47B6A6"/>
<path d="M224.08 174.84H237.08V180.76H224.08V174.84ZM224.64 185.88H239.28V192H216.8V164H238.76V170.12H224.64V185.88ZM243.675 192V164H250.195L265.635 182.64H262.555V164H270.315V192H263.795L248.355 173.36H251.435V192H243.675ZM275.902 192V164H289.142C292.235 164 294.955 164.573 297.302 165.72C299.648 166.867 301.475 168.48 302.782 170.56C304.115 172.64 304.782 175.12 304.782 178C304.782 180.853 304.115 183.333 302.782 185.44C301.475 187.52 299.648 189.133 297.302 190.28C294.955 191.427 292.235 192 289.142 192H275.902ZM283.822 185.68H288.822C290.422 185.68 291.808 185.387 292.982 184.8C294.182 184.187 295.115 183.307 295.782 182.16C296.448 180.987 296.782 179.6 296.782 178C296.782 176.373 296.448 174.987 295.782 173.84C295.115 172.693 294.182 171.827 292.982 171.24C291.808 170.627 290.422 170.32 288.822 170.32H283.822V185.68ZM323.068 192.56C320.828 192.56 318.762 192.2 316.868 191.48C314.975 190.76 313.322 189.747 311.908 188.44C310.522 187.107 309.442 185.56 308.668 183.8C307.895 182.04 307.508 180.107 307.508 178C307.508 175.893 307.895 173.96 308.668 172.2C309.442 170.44 310.522 168.907 311.908 167.6C313.322 166.267 314.975 165.24 316.868 164.52C318.762 163.8 320.828 163.44 323.068 163.44C325.335 163.44 327.402 163.8 329.268 164.52C331.162 165.24 332.802 166.267 334.188 167.6C335.575 168.907 336.655 170.44 337.428 172.2C338.228 173.96 338.628 175.893 338.628 178C338.628 180.107 338.228 182.053 337.428 183.84C336.655 185.6 335.575 187.133 334.188 188.44C332.802 189.747 331.162 190.76 329.268 191.48C327.402 192.2 325.335 192.56 323.068 192.56ZM323.068 186C324.135 186 325.122 185.813 326.028 185.44C326.962 185.067 327.762 184.533 328.428 183.84C329.122 183.12 329.655 182.267 330.028 181.28C330.428 180.293 330.628 179.2 330.628 178C330.628 176.773 330.428 175.68 330.028 174.72C329.655 173.733 329.122 172.893 328.428 172.2C327.762 171.48 326.962 170.933 326.028 170.56C325.122 170.187 324.135 170 323.068 170C322.002 170 321.002 170.187 320.068 170.56C319.162 170.933 318.362 171.48 317.668 172.2C317.002 172.893 316.468 173.733 316.068 174.72C315.695 175.68 315.508 176.773 315.508 178C315.508 179.2 315.695 180.293 316.068 181.28C316.468 182.267 317.002 183.12 317.668 183.84C318.362 184.533 319.162 185.067 320.068 185.44C321.002 185.813 322.002 186 323.068 186ZM224.16 219.28H237.08V225.4H224.16V219.28ZM224.72 235H216.8V207H238.76V213.12H224.72V235ZM256.35 235.56C254.11 235.56 252.043 235.2 250.15 234.48C248.256 233.76 246.603 232.747 245.19 231.44C243.803 230.107 242.723 228.56 241.95 226.8C241.176 225.04 240.79 223.107 240.79 221C240.79 218.893 241.176 216.96 241.95 215.2C242.723 213.44 243.803 211.907 245.19 210.6C246.603 209.267 248.256 208.24 250.15 207.52C252.043 206.8 254.11 206.44 256.35 206.44C258.616 206.44 260.683 206.8 262.55 207.52C264.443 208.24 266.083 209.267 267.47 210.6C268.856 211.907 269.936 213.44 270.71 215.2C271.51 216.96 271.91 218.893 271.91 221C271.91 223.107 271.51 225.053 270.71 226.84C269.936 228.6 268.856 230.133 267.47 231.44C266.083 232.747 264.443 233.76 262.55 234.48C260.683 235.2 258.616 235.56 256.35 235.56ZM256.35 229C257.416 229 258.403 228.813 259.31 228.44C260.243 228.067 261.043 227.533 261.71 226.84C262.403 226.12 262.936 225.267 263.31 224.28C263.71 223.293 263.91 222.2 263.91 221C263.91 219.773 263.71 218.68 263.31 217.72C262.936 216.733 262.403 215.893 261.71 215.2C261.043 214.48 260.243 213.933 259.31 213.56C258.403 213.187 257.416 213 256.35 213C255.283 213 254.283 213.187 253.35 213.56C252.443 213.933 251.643 214.48 250.95 215.2C250.283 215.893 249.75 216.733 249.35 217.72C248.976 218.68 248.79 219.773 248.79 221C248.79 222.2 248.976 223.293 249.35 224.28C249.75 225.267 250.283 226.12 250.95 226.84C251.643 227.533 252.443 228.067 253.35 228.44C254.283 228.813 255.283 229 256.35 229ZM276.058 235V207H288.858C291.418 207 293.618 207.413 295.458 208.24C297.324 209.067 298.764 210.267 299.778 211.84C300.791 213.387 301.298 215.227 301.298 217.36C301.298 219.467 300.791 221.293 299.778 222.84C298.764 224.36 297.324 225.533 295.458 226.36C293.618 227.16 291.418 227.56 288.858 227.56H280.458L283.978 224.24V235H276.058ZM293.378 235L286.418 224.8H294.858L301.858 235H293.378ZM283.978 225.08L280.458 221.44H288.378C290.031 221.44 291.258 221.08 292.058 220.36C292.884 219.64 293.298 218.64 293.298 217.36C293.298 216.053 292.884 215.04 292.058 214.32C291.258 213.6 290.031 213.24 288.378 213.24H280.458L283.978 209.6V225.08ZM318.587 235.56C314.454 235.56 311.227 234.427 308.907 232.16C306.587 229.893 305.427 226.68 305.427 222.52V207H313.347V222.28C313.347 224.68 313.814 226.4 314.747 227.44C315.707 228.48 317.014 229 318.667 229C320.321 229 321.614 228.48 322.547 227.44C323.481 226.4 323.947 224.68 323.947 222.28V207H331.747V222.52C331.747 226.68 330.587 229.893 328.267 232.16C325.947 234.427 322.721 235.56 318.587 235.56ZM337.113 235V207H343.633L355.233 226.04H351.793L363.073 207H369.593L369.673 235H362.393L362.313 218.08H363.553L355.113 232.24H351.593L342.913 218.08H344.433V235H337.113ZM230.92 278.56C228.68 278.56 226.613 278.2 224.72 277.48C222.827 276.76 221.173 275.747 219.76 274.44C218.373 273.107 217.293 271.56 216.52 269.8C215.747 268.04 215.36 266.107 215.36 264C215.36 261.893 215.747 259.96 216.52 258.2C217.293 256.44 218.373 254.907 219.76 253.6C221.173 252.267 222.827 251.24 224.72 250.52C226.613 249.8 228.68 249.44 230.92 249.44C233.187 249.44 235.253 249.8 237.12 250.52C239.013 251.24 240.653 252.267 242.04 253.6C243.427 254.907 244.507 256.44 245.28 258.2C246.08 259.96 246.48 261.893 246.48 264C246.48 266.107 246.08 268.053 245.28 269.84C244.507 271.6 243.427 273.133 242.04 274.44C240.653 275.747 239.013 276.76 237.12 277.48C235.253 278.2 233.187 278.56 230.92 278.56ZM230.92 272C231.987 272 232.973 271.813 233.88 271.44C234.813 271.067 235.613 270.533 236.28 269.84C236.973 269.12 237.507 268.267 237.88 267.28C238.28 266.293 238.48 265.2 238.48 264C238.48 262.773 238.28 261.68 237.88 260.72C237.507 259.733 236.973 258.893 236.28 258.2C235.613 257.48 234.813 256.933 233.88 256.56C232.973 256.187 231.987 256 230.92 256C229.853 256 228.853 256.187 227.92 256.56C227.013 256.933 226.213 257.48 225.52 258.2C224.853 258.893 224.32 259.733 223.92 260.72C223.547 261.68 223.36 262.773 223.36 264C223.36 265.2 223.547 266.293 223.92 267.28C224.32 268.267 224.853 269.12 225.52 269.84C226.213 270.533 227.013 271.067 227.92 271.44C228.853 271.813 229.853 272 230.92 272ZM250.628 278V250H263.428C265.988 250 268.188 250.413 270.028 251.24C271.895 252.067 273.335 253.267 274.348 254.84C275.361 256.387 275.868 258.227 275.868 260.36C275.868 262.467 275.361 264.293 274.348 265.84C273.335 267.36 271.895 268.533 270.028 269.36C268.188 270.16 265.988 270.56 263.428 270.56H255.028L258.548 267.24V278H250.628ZM267.948 278L260.988 267.8H269.428L276.428 278H267.948ZM258.548 268.08L255.028 264.44H262.948C264.601 264.44 265.828 264.08 266.628 263.36C267.455 262.64 267.868 261.64 267.868 260.36C267.868 259.053 267.455 258.04 266.628 257.32C265.828 256.6 264.601 256.24 262.948 256.24H255.028L258.548 252.6V268.08ZM280.238 278V250H288.158V271.72H301.518V278H280.238Z" fill="#112D63"/>
<path d="M160.327 150.047C160.327 142.641 158.374 137.026 154.468 133.201C150.643 129.295 144.987 127.342 137.5 127.342C132.699 127.342 128.182 127.749 123.95 128.562C119.8 129.376 116.138 130.394 112.964 131.614L105.64 157.615L86.2305 156.272V121.971C95.0195 117.902 104.134 114.769 113.574 112.571C123.096 110.293 132.332 109.153 141.284 109.153C158.781 109.153 172.412 112.775 182.178 120.018C192.025 127.179 196.948 137.311 196.948 150.413C196.948 157.9 194.873 165.59 190.723 173.484C186.572 181.297 181.038 189.313 174.121 197.532C167.204 205.752 159.31 214.174 150.439 222.801C141.569 231.346 132.414 240.053 122.974 248.924L123.462 250.145H169.482L179.492 226.585L198.291 229.393L195.483 277H81.8359V254.417C93.1478 243.268 103.564 232.933 113.086 223.411C122.689 213.89 130.99 204.938 137.988 196.556C144.987 188.092 150.439 180.076 154.346 172.508C158.333 164.858 160.327 157.371 160.327 150.047Z" fill="#47B6A6"/>
<defs>
<filter id="filter0_d_170_1437" x="0" y="0" width="662" height="411" filterUnits="userSpaceOnUse" color-interpolation-filters="sRGB">
<feFlood flood-opacity="0" result="BackgroundImageFix"/>
<feColorMatrix in="SourceAlpha" type="matrix" values="0 0 0 0 0 0 0 0 0 0 0 0 0 0 0 0 0 0 127 0" result="hardAlpha"/>
<feOffset dx="11"/>
<feGaussianBlur stdDeviation="19"/>
<feComposite in2="hardAlpha" operator="out"/>
<feColorMatrix type="matrix" values="0 0 0 0 0.0273438 0 0 0 0 0.0673966 0 0 0 0 0.145833 0 0 0 0.32 0"/>
<feBlend mode="normal" in2="BackgroundImageFix" result="effect1_dropShadow_170_1437"/>
<feBlend mode="normal" in="SourceGraphic" in2="effect1_dropShadow_170_1437" result="shape"/>
</filter>
</defs>
</svg>
