<svg width="125" height="292" viewBox="0 0 125 292" fill="none" xmlns="http://www.w3.org/2000/svg">
<g opacity="0.7">
<g opacity="0.7">
<path opacity="0.7" d="M107.913 242.433C105.889 240.202 105.889 236.598 107.913 234.367C109.937 232.137 113.207 232.137 115.231 234.367C117.255 236.598 117.255 240.202 115.231 242.433C113.363 244.664 109.937 244.664 107.913 242.433Z" fill="#CED4DF"/>
<path opacity="0.7" d="M86.7388 265.943C84.7148 263.712 84.7148 260.108 86.7388 257.877C88.7629 255.646 92.0325 255.646 94.0565 257.877C96.0805 260.108 96.0805 263.712 94.0565 265.943C92.0325 268.173 88.7629 268.173 86.7388 265.943Z" fill="#CED4DF"/>
<path opacity="0.7" d="M65.4086 289.28C63.3846 287.05 63.3846 283.446 65.4086 281.215C67.4327 278.984 70.7023 278.984 72.7263 281.215C74.7503 283.446 74.7503 287.05 72.7263 289.28C70.858 291.683 67.4327 291.683 65.4086 289.28Z" fill="#CED4DF"/>
<path opacity="0.7" d="M91.0983 223.9C89.0743 221.669 89.0743 218.065 91.0983 215.834C93.1224 213.603 96.392 213.603 98.416 215.834C100.44 218.065 100.44 221.669 98.416 223.9C96.5477 226.131 93.1224 226.131 91.0983 223.9Z" fill="#CED4DF"/>
<path opacity="0.7" d="M69.9236 247.409C67.8996 245.178 67.8996 241.575 69.9236 239.344C71.9477 237.113 75.2173 237.113 77.2413 239.344C79.2653 241.575 79.2653 245.178 77.2413 247.409C75.2173 249.64 71.9477 249.64 69.9236 247.409Z" fill="#CED4DF"/>
<path opacity="0.7" d="M48.5934 270.747C46.5694 268.517 46.5694 264.913 48.5934 262.682C50.6175 260.451 53.8871 260.451 55.9111 262.682C57.9351 264.913 57.9351 268.517 55.9111 270.747C54.0428 272.978 50.6175 272.978 48.5934 270.747Z" fill="#CED4DF"/>
<path opacity="0.7" d="M74.2831 205.367C72.2591 203.136 72.2591 199.532 74.2831 197.301C76.3072 195.07 79.5768 195.07 81.6008 197.301C83.6248 199.532 83.6248 203.136 81.6008 205.367C79.7325 207.598 76.3072 207.598 74.2831 205.367Z" fill="#CED4DF"/>
<path opacity="0.7" d="M53.1086 228.876C51.0845 226.645 51.0845 223.042 53.1086 220.811C55.1326 218.58 58.4022 218.58 60.4262 220.811C62.4503 223.042 62.4503 226.645 60.4262 228.876C58.4022 231.107 55.1326 231.107 53.1086 228.876Z" fill="#CED4DF"/>
<path opacity="0.7" d="M31.7784 252.214C29.7543 249.983 29.7543 246.38 31.7784 244.149C33.8024 241.918 37.072 241.918 39.096 244.149C41.1201 246.38 41.1201 249.983 39.096 252.214C37.072 254.445 33.8024 254.445 31.7784 252.214Z" fill="#CED4DF"/>
<path opacity="0.7" d="M57.4681 186.833C55.444 184.603 55.444 180.999 57.4681 178.768C59.4921 176.537 62.7617 176.537 64.7857 178.768C66.8098 180.999 66.8098 184.603 64.7857 186.833C62.7617 189.064 59.4921 189.064 57.4681 186.833Z" fill="#CED4DF"/>
<path opacity="0.7" d="M36.2936 210.343C34.2695 208.112 34.2695 204.508 36.2936 202.278C38.3176 200.047 41.5872 200.047 43.6112 202.278C45.6353 204.508 45.6353 208.112 43.6112 210.343C41.5872 212.574 38.3176 212.574 36.2936 210.343Z" fill="#CED4DF"/>
<path opacity="0.7" d="M14.9633 233.681C12.9393 231.45 12.9393 227.847 14.9633 225.616C16.9874 223.385 20.257 223.385 22.281 225.616C24.3051 227.847 24.3051 231.45 22.281 233.681C20.257 235.912 16.9874 235.912 14.9633 233.681Z" fill="#CED4DF"/>
<path opacity="0.7" d="M40.6531 168.3C38.629 166.069 38.629 162.466 40.6531 160.235C42.6771 158.004 45.9467 158.004 47.9707 160.235C49.9948 162.466 49.9948 166.069 47.9707 168.3C45.9467 170.531 42.6771 170.531 40.6531 168.3Z" fill="#CED4DF"/>
<path opacity="0.7" d="M19.4785 191.81C17.4545 189.579 17.4545 185.976 19.4785 183.745C21.5025 181.514 24.7721 181.514 26.7962 183.745C28.8202 185.976 28.8202 189.579 26.7962 191.81C24.7721 194.041 21.5025 194.041 19.4785 191.81Z" fill="#CED4DF"/>
<path opacity="0.7" d="M-1.85184 215.148C-3.87587 212.917 -3.87587 209.313 -1.85184 207.083C0.172197 204.852 3.4418 204.852 5.46583 207.083C7.48986 209.313 7.48986 212.917 5.46583 215.148C3.4418 217.379 0.172197 217.379 -1.85184 215.148Z" fill="#CED4DF"/>
<path opacity="0.7" d="M23.8378 149.767C21.8138 147.536 21.8138 143.933 23.8378 141.702C25.8619 139.471 29.1315 139.471 31.1555 141.702C33.1796 143.933 33.1796 147.536 31.1555 149.767C29.1315 151.998 25.8619 151.998 23.8378 149.767Z" fill="#CED4DF"/>
<path opacity="0.7" d="M2.50765 173.277C0.483617 171.046 0.483617 167.442 2.50766 165.211C4.53169 162.981 7.80129 162.981 9.82532 165.211C11.8494 167.442 11.8494 171.046 9.82532 173.277C7.80129 175.508 4.68739 175.508 2.50765 173.277Z" fill="#CED4DF"/>
<path opacity="0.7" d="M7.02281 131.234C4.99878 129.003 4.99878 125.399 7.02281 123.168C9.04685 120.938 12.3165 120.938 14.3405 123.168C16.3645 125.399 16.3645 129.003 14.3405 131.234C12.3165 133.465 9.04685 133.465 7.02281 131.234Z" fill="#CED4DF"/>
</g>
<g opacity="0.7">
<path opacity="0.7" d="M116.01 121.109C113.986 118.878 113.986 115.275 116.01 113.044C118.034 110.813 121.303 110.813 123.327 113.044C125.351 115.275 125.351 118.878 123.327 121.109C121.303 123.34 118.034 123.34 116.01 121.109Z" fill="#CED4DF"/>
<path opacity="0.7" d="M94.6793 144.447C92.6553 142.216 92.6553 138.613 94.6793 136.382C96.7034 134.151 99.9729 134.151 101.997 136.382C104.021 138.613 104.021 142.216 101.997 144.447C100.129 146.678 96.7034 146.678 94.6793 144.447Z" fill="#CED4DF"/>
<path opacity="0.7" d="M73.5048 167.957C71.4808 165.726 71.4808 162.122 73.5048 159.891C75.5289 157.661 78.7985 157.661 80.8225 159.891C82.8465 162.122 82.8465 165.726 80.8225 167.957C78.7984 170.188 75.5288 170.188 73.5048 167.957Z" fill="#CED4DF"/>
<path opacity="0.7" d="M99.1945 102.576C97.1705 100.345 97.1705 96.7414 99.1945 94.5105C101.219 92.2797 104.488 92.2797 106.512 94.5105C108.536 96.7414 108.536 100.345 106.512 102.576C104.488 104.807 101.219 104.807 99.1945 102.576Z" fill="#CED4DF"/>
<path opacity="0.7" d="M77.8641 125.914C75.8401 123.683 75.8401 120.08 77.8641 117.849C79.8882 115.618 83.1578 115.618 85.1818 117.849C87.2058 120.08 87.2058 123.683 85.1818 125.914C83.1578 128.145 79.8882 128.145 77.8641 125.914Z" fill="#CED4DF"/>
<path opacity="0.7" d="M56.6896 149.424C54.6656 147.193 54.6656 143.589 56.6896 141.358C58.7137 139.128 61.9833 139.128 64.0073 141.358C66.0313 143.589 66.0313 147.193 64.0073 149.424C61.9833 151.655 58.7137 151.655 56.6896 149.424Z" fill="#CED4DF"/>
<path opacity="0.7" d="M82.3793 84.0429C80.3553 81.8121 80.3553 78.2084 82.3793 75.9776C84.4034 73.7467 87.673 73.7467 89.697 75.9776C91.721 78.2084 91.721 81.8121 89.697 84.0429C87.673 86.2738 84.4034 86.2738 82.3793 84.0429Z" fill="#CED4DF"/>
<path opacity="0.7" d="M61.0491 107.381C59.0251 105.15 59.0251 101.546 61.0491 99.3155C63.0732 97.0846 66.3428 97.0846 68.3668 99.3155C70.3908 101.546 70.3908 105.15 68.3668 107.381C66.3428 109.612 63.0732 109.612 61.0491 107.381Z" fill="#CED4DF"/>
<path opacity="0.7" d="M39.8746 130.891C37.8505 128.66 37.8505 125.056 39.8746 122.825C41.8986 120.594 45.1682 120.594 47.1922 122.825C49.2163 125.056 49.2163 128.66 47.1922 130.891C45.1682 133.121 41.8986 133.121 39.8746 130.891Z" fill="#CED4DF"/>
<path opacity="0.7" d="M65.5643 65.3381C63.5402 63.1073 63.5402 59.5036 65.5643 57.2727C67.5883 55.0419 70.8579 55.0419 72.8819 57.2727C74.906 59.5036 74.906 63.1073 72.8819 65.3381C70.8579 67.7405 67.5883 67.7405 65.5643 65.3381Z" fill="#CED4DF"/>
<path opacity="0.7" d="M44.2341 88.8476C42.21 86.6168 42.21 83.0131 44.2341 80.7823C46.2581 78.5514 49.5277 78.5514 51.5517 80.7823C53.5758 83.0131 53.5758 86.6168 51.5517 88.8476C49.5277 91.0785 46.2581 91.0785 44.2341 88.8476Z" fill="#CED4DF"/>
<path opacity="0.7" d="M22.9039 112.357C20.8798 110.126 20.8798 106.523 22.9039 104.292C24.9279 102.061 28.1975 102.061 30.2215 104.292C32.2456 106.523 32.2456 110.126 30.2215 112.357C28.3532 114.588 25.0836 114.588 22.9039 112.357Z" fill="#CED4DF"/>
<path opacity="0.7" d="M48.5936 46.8047C46.5695 44.5738 46.5695 40.9701 48.5936 38.7393C50.6176 36.5085 53.8872 36.5085 55.9112 38.7393C57.9353 40.9701 57.9353 44.5738 55.9112 46.8047C54.0429 49.0355 50.7733 49.0355 48.5936 46.8047Z" fill="#CED4DF"/>
<path opacity="0.7" d="M27.419 70.3147C25.395 68.0838 25.395 64.4801 27.419 62.2493C29.4431 60.0185 32.7127 60.0185 34.7367 62.2493C36.7607 64.4802 36.7607 68.0838 34.7367 70.3147C32.7127 72.5455 29.4431 72.5455 27.419 70.3147Z" fill="#CED4DF"/>
<path opacity="0.7" d="M6.08866 93.6526C4.06461 91.4217 4.06462 87.818 6.08866 85.5872C8.1127 83.3564 11.3823 83.3564 13.4063 85.5872C15.4304 87.818 15.4304 91.4217 13.4063 93.6526C11.3823 95.8834 8.1127 96.055 6.08866 93.6526Z" fill="#CED4DF"/>
<path opacity="0.7" d="M31.7784 28.2715C29.7543 26.0406 29.7543 22.4369 31.7784 20.2061C33.8024 17.9752 37.072 17.9752 39.096 20.2061C41.1201 22.4369 41.1201 26.0406 39.096 28.2715C37.072 30.5023 33.8024 30.5023 31.7784 28.2715Z" fill="#CED4DF"/>
<path opacity="0.7" d="M10.6038 51.7815C8.57981 49.5506 8.57981 45.9469 10.6038 43.7161C12.6279 41.4853 15.8975 41.4853 17.9215 43.7161C19.9456 45.9469 19.9456 49.5506 17.9215 51.7815C15.8975 54.0123 12.6279 54.0123 10.6038 51.7815Z" fill="#CED4DF"/>
<path opacity="0.7" d="M14.9633 9.7385C12.9393 7.50765 12.9393 3.90398 14.9633 1.67313C16.9874 -0.557712 20.257 -0.557712 22.281 1.67313C24.3051 3.90398 24.3051 7.50765 22.281 9.7385C20.257 11.9693 16.9874 11.9693 14.9633 9.7385Z" fill="#CED4DF"/>
<path opacity="0.7" d="M-6.21119 33.248C-8.23523 31.0172 -8.23523 27.4135 -6.21119 25.1827C-4.18715 22.9518 -0.917557 22.9518 1.10648 25.1827C3.13052 27.4135 3.13052 31.0172 1.10648 33.248C-0.917558 35.4789 -4.18716 35.4789 -6.21119 33.248Z" fill="#CED4DF"/>
</g>
</g>
</svg>
